<?xml version="1.0" encoding="UTF-8"?>
<!DOCTYPE svg PUBLIC "-//W3C//DTD SVG 1.1//EN" "http://www.w3.org/Graphics/SVG/1.1/DTD/svg11.dtd">
<!-- Creator: CorelDRAW 2019 (64-Bit) -->
<svg xmlns="http://www.w3.org/2000/svg" xml:space="preserve" width="5.3in" height="4.6in" version="1.1" style="shape-rendering:geometricPrecision; text-rendering:geometricPrecision; image-rendering:optimizeQuality; fill-rule:evenodd; clip-rule:evenodd"
viewBox="0 0 5300 4600"
 xmlns:xlink="http://www.w3.org/1999/xlink"
 xmlns:xodm="http://www.corel.com/coreldraw/odm/2003">
 <defs>
  <style type="text/css">
   <![CDATA[
    .str0 {stroke:#9ECFAC;stroke-width:6.94;stroke-miterlimit:2.61313}
    .str1 {stroke:#BFE7D1;stroke-width:3;stroke-miterlimit:2.61313}
    .fil0 {fill:black;fill-rule:nonzero}
    .fil9 {fill:#26AC62;fill-rule:nonzero}
    .fil3 {fill:#333333;fill-rule:nonzero}
    .fil21 {fill:#379168;fill-rule:nonzero}
    .fil2 {fill:#545454;fill-rule:nonzero}
    .fil20 {fill:#5FB38C;fill-rule:nonzero}
    .fil4 {fill:#6E6E6E;fill-rule:nonzero}
    .fil22 {fill:#74C9A2;fill-rule:nonzero}
    .fil17 {fill:#A33A23;fill-rule:nonzero}
    .fil18 {fill:#BA4228;fill-rule:nonzero}
    .fil8 {fill:#BFE7D1;fill-rule:nonzero}
    .fil7 {fill:#C75038;fill-rule:nonzero}
    .fil12 {fill:#C95138;fill-rule:nonzero}
    .fil10 {fill:#D17743;fill-rule:nonzero}
    .fil6 {fill:#D46C42;fill-rule:nonzero}
    .fil11 {fill:#D66D2D;fill-rule:nonzero}
    .fil15 {fill:#D9F1FF;fill-rule:nonzero}
    .fil24 {fill:#DB542E;fill-rule:nonzero}
    .fil14 {fill:#DE7964;fill-rule:nonzero}
    .fil23 {fill:#E3733F;fill-rule:nonzero}
    .fil16 {fill:#F56245;fill-rule:nonzero}
    .fil19 {fill:#F79985;fill-rule:nonzero}
    .fil13 {fill:#F7A594;fill-rule:nonzero}
    .fil1 {fill:#FFA46E;fill-rule:nonzero}
    .fil5 {fill:white;fill-rule:nonzero}
   ]]>
  </style>
 </defs>
 <g id="Layer_x0020_1">
  <metadata id="CorelCorpID_0Corel-Layer"/>
  <g id="_2700297555200">
   <path class="fil0" d="M5291.41 4237.8l-5282.81 0c-4.75,0 -8.6,-6 -8.6,-13.39l0 0c0,-7.39 3.85,-13.39 8.6,-13.39l5282.81 0c4.75,0 8.59,6 8.59,13.39l0 0c0,7.39 -3.84,13.39 -8.59,13.39z"/>
   <polygon class="fil1" points="4062.64,1961.66 3962.04,2134.73 3785.6,1836.69 3905.03,1765.85 "/>
   <path class="fil2" d="M3937.19 2009.04l-6.13 4.99 -60.94 49.5c-16.43,13.69 -36.87,4.07 -45.66,-21.48 -52.04,-204.02 -113.67,-391.65 -190.43,-553.57 -8.78,-25.54 -2.61,-57.38 13.81,-71.07l63.68 -51.76 3.39 -2.76c16.4,-13.69 36.85,-4.07 45.64,21.51 75.7,168.67 138.41,354.18 190.43,553.56 8.79,25.56 2.61,57.39 -13.8,71.1l0.02 -0.02z"/>
   <path class="fil3" d="M3766.8 1524.63l-77.67 63.34c-14.9,12.44 -33.44,3.69 -41.43,-19.51l-26.61 -77.35c-7.99,-23.2 -2.37,-52.07 12.53,-64.5l77.65 -63.34c14.9,-12.44 33.45,-3.69 41.42,19.51l26.61 77.35c7.98,23.2 2.37,52.07 -12.53,64.5l0.01 0z"/>
   <path class="fil4" d="M3749.72 1525.03l-60.91 49.37c-12.84,10.71 -28.84,3.19 -35.72,-16.81l-23.96 -69.64c-6.87,-20 -2.05,-44.91 10.8,-55.61l60.91 -49.36c12.84,-10.71 28.83,-3.19 35.71,16.81l23.96 69.64c6.88,20 2.05,44.91 -10.79,55.61z"/>
   <path class="fil3" d="M3933.76 2009.96l-77.65 63.34c-14.9,12.43 -33.44,3.69 -41.43,-19.51l-26.61 -77.35c-7.97,-23.2 -2.37,-52.07 12.53,-64.5l77.67 -63.32c14.9,-12.43 33.44,-3.69 41.42,19.51l26.61 77.33c7.97,23.2 2.37,52.07 -12.53,64.5l-0.01 0z"/>
   <path class="fil4" d="M3917.25 2012.06l-60.91 49.37c-12.84,10.71 -28.84,3.19 -35.71,-16.81l-23.96 -69.64c-6.88,-20 -2.05,-44.91 10.79,-55.61l60.91 -49.37c12.84,-10.71 28.84,-3.19 35.71,16.81l23.96 69.64c6.88,20 2.05,44.91 -10.79,55.61z"/>
   <path class="fil1" d="M3788.49 1914.51c-6.08,-2.09 -61.47,-52.59 -12.84,-185.13 35.13,-4.2 38.92,65.95 32.43,84.14 -20.26,56.8 -19.59,100.98 -19.59,100.98l0 0z"/>
   <path class="fil3" d="M3937.19 2009.04l-6.13 4.99c1.32,-5.1 4.96,-19.07 8.57,-35.26 4.57,-20.43 -53.65,-159.99 -53.65,-159.99 0,0 -62.23,-13.34 -91.34,-102.24 -29.11,-88.87 -6.29,-174.23 -6.29,-174.23 0,0 -30.25,-82.66 -43.94,-129.77 -7.72,-26.52 -21.95,-40.08 -32.9,-46.89l3.39 -2.76c16.42,-13.69 36.85,-4.07 45.64,21.51 75.7,168.66 138.41,354.18 190.43,553.53 8.79,25.59 2.61,57.41 -13.79,71.1l0.02 0z"/>
   <path class="fil1" d="M3856.71 1796.7c16.39,13.44 33.95,-5.24 48.63,0 7.56,2.68 8.96,20.52 15.54,27.34 33.1,-72.59 -30.68,-257.2 -85.85,-297.04 -3.59,-2.61 -41.54,3.08 -39.56,93.93 1.24,56.94 44.85,162.3 61.25,175.75l-0 0.02z"/>
   <path class="fil5" d="M4519.88 2545.51c-0.02,0.06 -0.02,0.13 -0.02,0.2 -1.59,13.69 -4.18,27.18 -7.88,40.27 -17.22,61.33 -58.49,113.72 -135.15,133.73 -118.85,14.03 -292.79,25.47 -447.56,42.69 -44.48,4.95 -87.39,10.39 -126.93,16.5 -163.72,-65.78 -261.98,-455.37 -70.08,-537.99 21.7,-9.34 111.65,-12.04 221.87,-7.54 200.42,8.14 467.85,40.01 513.97,98.68 36.36,46.23 61.11,132.93 51.77,213.44l0.02 0.01z"/>
   <path class="fil1" d="M3675.81 2272.81c-98.01,123.06 -236.66,155.51 -339.66,10.41 1,-80.48 15.32,-320.35 11.82,-398.61l319.52 67.11c2.44,94.36 5.87,226.37 8.32,321.11l-0.01 -0.02z"/>
   <path class="fil6" d="M3668.41 1973.15c-0.18,-7.2 -0.35,-14.59 -0.52,-21.44l-235.96 0 -71.32 23.39c0,0 101.14,260.02 314.75,298.28 -2.53,-109.69 -5.64,-244.46 -6.95,-300.23z"/>
   <ellipse class="fil1" transform="matrix(0.691657 -0.0535925 0.0344166 1.07703 3712.42 1559.19)" rx="56.79" ry="71.99"/>
   <path class="fil1" d="M3683.89 1323.43c-1.58,8.42 67.23,393.81 58.72,490.06 -71.8,288.4 -193.23,391.28 -390.61,171.73 -29.08,-52.65 -119.16,-345.64 -120.74,-348.42 -131.11,-395.65 354.51,-728.48 452.62,-313.38l0.01 0z"/>
   <path class="fil0" d="M3637.63 1234.13c42.31,15.42 57.09,192.91 69.35,247.06l2.32 -10.28c10.66,-739.28 -778.74,-370.46 -456.49,232.33 23.35,22.2 48.46,95.28 62.56,148.14 -3.77,-35.96 23.39,-145.7 13.87,-226.99 0,0 -56.03,-110.21 -38.83,-216.05 10.55,-64.88 99.77,-45.09 175.72,-88.16 77.29,-43.8 141.07,-103.91 171.49,-86.06z"/>
   <path class="fil0" d="M3453.96 1621.63c9.53,40.96 -17.66,56.48 -27.41,15.67 -9.53,-40.96 17.65,-56.48 27.41,-15.67z"/>
   <path class="fil0" d="M3667.29 1501.18c9.53,40.96 -17.66,56.49 -27.41,15.66 -9.53,-40.96 17.65,-56.49 27.41,-15.66z"/>
   <path class="fil7" d="M3607.08 1778.62c53.25,-26.43 -22.79,-121.97 -38.48,-146.67 0,0 -12.85,-54.53 -12.85,-54.53 -0.84,-3.62 -3.43,-5.48 -5.76,-4.14 -2.32,1.33 -3.53,5.35 -2.67,8.96l13.63 57.86c24.27,32.93 58.62,89.73 56.28,108.62 -5.65,31.21 -56.43,17.76 -54.52,32.39 -0.37,13.9 27.98,5.07 44.37,-2.5z"/>
   <path class="fil7" d="M3606.4 1908.09c14.07,-8.02 23.45,-14.54 24.81,-15.49 5.3,-3.6 1.63,-16.6 -3.69,-12.75 -1.24,0.87 -124.46,86.2 -172.73,30.15 -1.99,-2.31 -4.8,-1.67 -6.29,1.43 19.67,64.18 124.31,16.26 157.87,-3.33l0.02 0z"/>
   <path class="fil0" d="M3389.07 1591.86c-39.93,-2.44 27.52,-96.91 67.08,-73.53 4.87,1.52 8.01,8.91 7.02,16.47 -0.98,7.57 -5.72,12.47 -10.59,10.94 -46.02,-10.83 -54,39.33 -63.52,46.12z"/>
   <path class="fil0" d="M3598.42 1468.44c-34.84,2.18 13.09,-89.09 68.09,-69.21 4.87,1.54 8.01,8.91 7.02,16.49 -0.98,7.58 -5.72,12.47 -10.59,10.94 -45.89,-11.18 -55.5,35.39 -64.52,41.81l0 -0.02z"/>
   <path class="fil0" d="M3186.2 1315.26c0,0 91.69,-310.42 276.5,-387.71 184.81,-77.29 145.66,105.43 145.66,105.43 194.26,-47.38 -100.78,283.01 -178.62,307.53 -70.27,30.07 -247.86,65.46 -243.54,-25.25z"/>
   <ellipse class="fil1" transform="matrix(0.549697 -0.655727 0.421102 0.855971 3281.87 1773.65)" rx="82.51" ry="104.59"/>
   <path class="fil7" d="M3302.82 1829.6c-2.35,1.35 -5.04,-0.21 -6.23,-3.73 -18.34,-54.32 -32.16,-64.3 -38.77,-65.43 -6.83,-1.14 -10.74,5.94 -10.91,6.25 -1.79,3.3 -4.97,3.79 -7.12,1.05 -2.14,-2.74 -2.49,-7.61 -0.76,-10.99 0.29,-0.56 7.3,-13.88 19.57,-12.04 15.39,2.29 31.19,27.14 46.95,73.81 1.3,3.86 0.35,8.63 -2.12,10.66 -0.2,0.17 -0.41,0.31 -0.61,0.43l-0 0z"/>
   <path class="fil8" d="M3034.68 4037.7c-4.19,64.78 -8.48,132.5 -12.63,200.11l790.3 0 5.69 -1963.84c-40.44,-11.29 -94.74,-38.96 -149.63,-44.94 -34.46,48.8 -55.19,82.88 -113.85,84.63 -36.28,1.03 -89.89,-23.65 -125.06,-88.61 -281.54,36.6 -427.72,166.71 -427.72,166.71l129.82 1189.94c0,0 -81.13,212.21 -96.92,456.02l0 -0.02z"/>
   <polygon class="fil9" points="3589.25,2526.68 3640.41,2423.86 3557.77,2332.49 3469.24,2420.37 3521.55,2526.68 "/>
   <path class="fil9" d="M3730.65 4021.25l-102.65 263.02 -98.41 -254.71c23.49,-469.42 12.72,-1075.32 -7.37,-1569.07l69.97 0.73c66.22,502.22 121.41,1096.83 138.46,1560.04z"/>
   <path class="fil9" d="M3711.02 2237.81l-36.52 -59.18c-3.11,60.11 -74.61,137.97 -116.73,153.84 37.87,50.23 67.11,88.26 105.19,179.76l48.07 -274.43 -0.01 0.01z"/>
   <path class="fil9" d="M3291.03 2247.07l54.94 -107.94c0,0 110.18,128.22 211.79,193.34 -45.5,53.38 -66.28,108.32 -93.57,179.74l-173.16 -265.16 0.01 0.02z"/>
   <path class="fil5" d="M2968.93 4600l444.51 0c59.52,-812.77 0.36,-1597.72 -128.72,-2347.69 -244.78,56.93 -284.91,169.43 -284.91,169.43l105.7 1435.14 -136.58 743.1 0 0.02z"/>
   <path class="fil5" d="M3784.53 4600l229.93 0 -59.78 -1011.84 -39.59 -1243.75c-112.2,-83.67 -147.78,-93.02 -207.72,-112.43 82.04,827.74 110.66,1612.41 77.16,2368.02z"/>
   <path class="fil8" d="M3422.24 4159.64c0.22,-0.07 0.42,-0.15 0.64,-0.22 51.64,-19.45 12.58,-430.21 12.58,-430.21 -79.13,25.94 -165.83,430.21 -165.83,430.21 0,0 0.43,0.1 1.24,0.22l151.37 0 -0 0z"/>
   <path class="fil8" d="M3250.23 2787.57l-128.5 673.03 308.62 277.39c-132.3,59.63 -180.38,265.51 -234.91,460.2l-373.7 -464.89 229.5 -1089.47 198.99 143.75 0 -0.01z"/>
   <path class="fil1" d="M3684.08 4164.38l-297.5 -1.29 -79.89 -0.35c-19.52,-65.03 -30.15,-135.19 20.86,-241.06 0,0 12.6,-1.88 31.92,-4.48 44.04,-5.96 123.03,-15.81 167.54,-16.19 103.31,-0.9 157.08,263.39 157.08,263.39l-0.01 -0.02z"/>
   <path class="fil10" d="M3386.57 4163.09l-79.9 -0.35c-19.52,-65.03 -30.16,-135.19 20.85,-241.06 0,0 12.6,-1.88 31.92,-4.48 -4.15,41.09 -13.54,172.9 27.11,245.89l0.01 0z"/>
   <path class="fil1" d="M3535.66 3901.87c3.15,0 92.77,-8.22 123.35,27.91 30.57,36.11 59.04,119.83 59.04,119.83 0,0 -5.26,18.06 -30.57,4.91 -25.3,-13.13 -49.56,-73.87 -49.56,-73.87l-90.67 -9.85 -11.6 -68.95 0.01 0.01z"/>
   <path class="fil11" d="M3647.15 4164.96c-0.44,0 -0.84,-0.49 -0.93,-1.2 -18.25,-147.27 -96.13,-179.48 -96.93,-179.79 -0.51,-0.21 -0.82,-1 -0.69,-1.78 0.13,-0.79 0.65,-1.28 1.16,-1.07 0.8,0.31 79.85,32.99 98.32,182.1 0.09,0.81 -0.24,1.57 -0.76,1.74 -0.06,0 -0.12,0.02 -0.18,0.02l0 -0.02z"/>
   <path class="fil11" d="M3606.82 4164.1c-0.37,0 -0.73,-0.35 -0.88,-0.94 -15.41,-61.57 -85.76,-104.3 -86.47,-104.73 -0.49,-0.3 -0.74,-1.14 -0.54,-1.91 0.18,-0.77 0.74,-1.15 1.23,-0.84 0.71,0.43 71.85,43.63 87.56,106.4 0.19,0.77 -0.05,1.61 -0.53,1.91 -0.12,0.07 -0.23,0.11 -0.35,0.11l-0.01 0z"/>
   <path class="fil5" d="M2999.81 2428.34c-6.44,3.09 -469.02,1063.24 -328.43,1395.79 51.02,120.7 647.07,375.55 647.07,375.55 -27.89,-120.1 0.84,-270.82 117.5,-469.17 -11.13,0 -401.83,-224.42 -401.83,-224.42 0,0 230.72,-679.46 234.43,-858.49 3.71,-179.02 -136.93,-282.62 -268.74,-219.28l0 0.02z"/>
   <path class="fil5" d="M4030.15 1862.39c0,0 437.91,420.14 475.42,526.53 45.71,129.63 5.56,329.91 -148.95,314.06 -154.51,-15.87 -448.32,-548.94 -448.32,-548.94l121.85 -291.62 0 -0.02z"/>
   <path class="fil8" d="M4187.92 2562.91c-109.63,-101.63 -278.36,-400.69 -280.06,-403.71l5.77 -7.85c1.67,3 169.63,300.66 278.22,401.31l-3.93 10.26z"/>
   <path class="fil8" d="M4511.98 2585.96c-17.22,61.33 -58.49,113.74 -135.15,133.73 -118.85,14.03 -292.79,25.47 -447.56,42.71 -7.26,-64.67 -17.38,-157.98 -17.38,-157.98 0,0 211.91,90.35 393.67,78.7 81.67,-5.21 157.23,-31.02 204.74,-94.85 0.56,-0.76 1.13,-1.52 1.67,-2.31l0 -0.01z"/>
   <polygon class="fil3" points="3926.17,2078.16 3905.33,2095.6 3881.2,2048.78 3914.42,2020.99 "/>
   <path class="fil3" d="M3932.35 2263.75c-0.83,0 -1.67,-0.45 -2.35,-1.39 -1.46,-2.02 -1.59,-5.5 -0.29,-7.77 18.91,-33.13 -13.78,-162.26 -27.97,-209.23 -0.83,-2.74 -0.07,-6.02 1.7,-7.32 1.76,-1.29 3.87,-0.11 4.7,2.64 2.17,7.15 52.72,175.93 26.86,221.21 -0.7,1.22 -1.67,1.84 -2.64,1.84l-0.01 0z"/>
   <path class="fil3" d="M3929.03 2285.96c-1.16,0 -2.29,-0.88 -2.96,-2.51 -1.06,-2.55 -0.6,-5.97 1.05,-7.61l34.2 -34.52c1.64,-1.65 3.82,-0.94 4.89,1.63 1.06,2.55 0.59,5.94 -1.05,7.61l-34.2 34.52c-0.6,0.6 -1.27,0.88 -1.92,0.88l-0.01 0z"/>
   <path class="fil3" d="M3931.57 2303.76c-1.15,0 -2.29,-0.88 -2.97,-2.5 -1.06,-2.55 -0.59,-5.97 1.05,-7.61l34.2 -34.53c1.63,-1.65 3.82,-0.91 4.89,1.63 1.06,2.55 0.59,5.96 -1.05,7.61l-34.21 34.53c-0.59,0.6 -1.25,0.88 -1.91,0.88l0.01 -0.01z"/>
   <path class="fil3" d="M3934.11 2321.57c-1.16,0 -2.29,-0.88 -2.96,-2.5 -1.06,-2.55 -0.59,-5.96 1.05,-7.61l34.2 -34.53c1.64,-1.65 3.82,-0.91 4.89,1.63 1.06,2.55 0.59,5.96 -1.05,7.61l-34.2 34.53c-0.6,0.6 -1.26,0.88 -1.92,0.88l-0.01 -0.02z"/>
   <path class="fil3" d="M3936.66 2339.39c-1.16,0 -2.3,-0.88 -2.96,-2.51 -1.06,-2.55 -0.6,-5.97 1.05,-7.61l34.21 -34.52c1.63,-1.65 3.82,-0.94 4.89,1.63 1.06,2.55 0.59,5.94 -1.05,7.61l-34.2 34.52c-0.6,0.6 -1.26,0.88 -1.91,0.88l-0.02 0z"/>
   <path class="fil3" d="M3939.2 2357.21c-1.16,0 -2.29,-0.88 -2.96,-2.51 -1.06,-2.55 -0.59,-5.94 1.05,-7.61l34.21 -34.52c1.63,-1.65 3.82,-0.92 4.89,1.63 1.06,2.55 0.6,5.96 -1.05,7.61l-34.2 34.52c-0.59,0.6 -1.27,0.88 -1.92,0.88l-0.02 0z"/>
   <path class="fil3" d="M3941.74 2375.03c-1.16,0 -2.29,-0.88 -2.96,-2.51 -1.06,-2.55 -0.59,-5.94 1.05,-7.61l34.2 -34.52c1.64,-1.65 3.82,-0.94 4.89,1.61 1.06,2.55 0.6,5.96 -1.05,7.61l-34.2 34.53c-0.6,0.6 -1.27,0.88 -1.92,0.88l-0.01 0.01z"/>
   <path class="fil3" d="M3944.28 2392.85c-1.16,0 -2.29,-0.88 -2.96,-2.5 -1.06,-2.55 -0.6,-5.96 1.03,-7.61l34.21 -34.53c1.63,-1.65 3.81,-0.92 4.89,1.63 1.06,2.55 0.59,5.97 -1.05,7.61l-34.19 34.53c-0.59,0.59 -1.27,0.88 -1.92,0.88l-0.01 -0.02z"/>
   <path class="fil3" d="M3946.82 2410.67c-1.16,0 -2.29,-0.88 -2.96,-2.51 -1.06,-2.55 -0.59,-5.96 1.05,-7.61l34.21 -34.53c1.63,-1.65 3.82,-0.92 4.89,1.63 1.06,2.55 0.6,5.94 -1.04,7.61l-34.21 34.53c-0.59,0.6 -1.27,0.88 -1.92,0.88l-0.02 0z"/>
   <path class="fil3" d="M3949.37 2428.47c-1.16,0 -2.29,-0.88 -2.97,-2.51 -1.06,-2.55 -0.59,-5.94 1.05,-7.61l34.19 -34.52c1.64,-1.65 3.82,-0.94 4.89,1.63 1.06,2.55 0.59,5.97 -1.05,7.61l-34.21 34.52c-0.59,0.6 -1.25,0.88 -1.92,0.88l0.02 0z"/>
   <path class="fil3" d="M3951.91 2446.29c-1.15,0 -2.29,-0.88 -2.96,-2.5 -1.06,-2.55 -0.59,-5.97 1.05,-7.61l34.21 -34.53c1.63,-1.65 3.82,-0.92 4.89,1.63 1.06,2.55 0.59,5.94 -1.05,7.61l-34.2 34.52c-0.6,0.6 -1.27,0.88 -1.93,0.88l-0.02 0z"/>
   <path class="fil3" d="M3954.46 2464.11c-1.15,0 -2.29,-0.88 -2.96,-2.51 -1.06,-2.55 -0.6,-5.96 1.05,-7.61l34.2 -34.53c1.63,-1.65 3.81,-0.92 4.89,1.63 1.06,2.55 0.59,5.97 -1.05,7.61l-34.2 34.52c-0.6,0.6 -1.26,0.9 -1.91,0.9l-0.01 -0.01z"/>
   <path class="fil3" d="M3957 2481.93c-1.16,0 -2.29,-0.88 -2.96,-2.51 -1.06,-2.55 -0.6,-5.97 1.05,-7.61l34.2 -34.53c1.63,-1.65 3.82,-0.92 4.89,1.63 1.06,2.55 0.59,5.97 -1.05,7.61l-34.21 34.52c-0.59,0.6 -1.25,0.9 -1.91,0.9l0 -0.01z"/>
   <path class="fil3" d="M3959.54 2499.72c-1.16,0 -2.29,-0.88 -2.96,-2.51 -1.06,-2.55 -0.59,-5.94 1.05,-7.61l34.2 -34.51c1.63,-1.65 3.81,-0.94 4.89,1.63 1.06,2.55 0.6,5.94 -1.05,7.61l-34.19 34.52c-0.6,0.6 -1.27,0.88 -1.92,0.88l-0.01 0z"/>
   <path class="fil3" d="M3962.08 2517.54c-1.16,0 -2.29,-0.88 -2.96,-2.51 -1.06,-2.55 -0.6,-5.94 1.05,-7.61l34.19 -34.53c1.64,-1.65 3.82,-0.92 4.89,1.63 1.06,2.55 0.59,5.97 -1.05,7.61l-34.2 34.53c-0.6,0.6 -1.26,0.88 -1.91,0.88l-0.01 0z"/>
   <path class="fil3" d="M3964.63 2535.36c-1.16,0 -2.29,-0.88 -2.96,-2.51 -1.06,-2.55 -0.6,-5.94 1.05,-7.61l34.21 -34.53c1.63,-1.65 3.81,-0.92 4.89,1.63 1.06,2.55 0.6,5.97 -1.05,7.61l-34.21 34.53c-0.59,0.58 -1.25,0.88 -1.92,0.88l-0.01 0z"/>
   <path class="fil3" d="M3967.17 2553.18c-1.16,0 -2.29,-0.88 -2.96,-2.51 -1.06,-2.55 -0.59,-5.97 1.05,-7.61l34.2 -34.52c1.63,-1.67 3.81,-0.94 4.89,1.63 1.06,2.55 0.6,5.94 -1.05,7.61l-34.19 34.51c-0.6,0.6 -1.27,0.88 -1.92,0.88l-0.01 0z"/>
   <path class="fil3" d="M4008.82 3231.43c-0.23,0 -0.44,-0.04 -0.69,-0.11 -1.92,-0.58 -3.17,-3.47 -2.78,-6.45 40.13,-319.44 22.17,-604.55 -0.98,-653.34 -9.6,-20.22 -24.26,-7.71 -24.87,-7.19 -1.7,1.5 -3.85,0.55 -4.82,-2.1 -0.96,-2.64 -0.36,-6 1.35,-7.5 7.13,-6.24 23.4,-12.13 34.02,10.24 22.92,48.3 44.48,325.74 2.23,661.98 -0.33,2.63 -1.81,4.44 -3.46,4.44l0 0.02z"/>
   <path class="fil12" d="M1589.28 1447.44c0,0 3.48,543.76 269.28,595.16 238.01,10.83 362.97,31.04 265.62,-701.3 -59.07,-327.33 -531.43,-245.54 -534.9,106.14z"/>
   <path class="fil8" d="M2346.79 4211.03l-960.27 0 66.09 -1874.31c265.94,-157.55 540.27,-134.69 828.08,0l66.09 1874.31 0.01 0z"/>
   <path class="fil8" d="M1677.44 2534.81c0,16.02 -36.22,721.83 99.24,1003.74 135.44,281.91 -176.78,675.92 -176.78,675.92 -291.56,-137.75 -113,-1785.38 77.54,-1679.66z"/>
   <path class="fil13" d="M2016.99 2309.76c0,0 -28.09,165.41 -142,172.88 -113.9,7.46 -148.84,-172.88 -148.84,-172.88l24.32 -298.43 14.59 -178.92 213.06 0 23.86 292.92 15.02 184.43z"/>
   <path class="fil14" d="M2001.96 2125.33c-103.03,27.54 -195.87,-37.96 -251.5,-114l14.59 -178.92 213.06 0 23.86 292.92 -0 0z"/>
   <path class="fil9" d="M1734.82 2111.85c0,11.46 132.59,364.75 132.59,364.75 0,0 -114.91,121.58 -114.91,112.41 0,-9.17 -54.52,-337.24 -54.52,-337.24l36.83 -139.94 0 0.02z"/>
   <path class="fil9" d="M2008.85 2130.19c0,11.48 -144.37,350.98 -144.37,350.98 0,0 106.07,135.35 106.07,126.18 0,-9.17 75.14,-337.24 75.14,-337.24l-36.82 -139.94 -0.01 0.02z"/>
   <path class="fil5" d="M1611.14 4591.63l-334.6 -32.68 128.75 -1033.02 -0.19 -5.18 -10.14 -273.28 -4.04 -108.85 -11.67 -314.48 -10.7 -288.19 -4.46 -120.25c0,0 64.26,-63.74 150.98,-116.44 50.45,-30.67 108.49,-57.62 165.9,-66.13 -14.11,1023.25 22.55,1595.02 -69.83,2358.49l-0 0z"/>
   <path class="fil5" d="M1580.61 3006.84c-33.72,52.82 -71.94,109.72 -117.75,165.44 -20.94,25.49 -43.48,50.72 -67.9,75.21 -71.15,71.33 -158.28,136.22 -268.72,182.28 -12.2,7.26 -23.79,10.45 -34.65,10.05 -85.9,-3 -126.61,-229.03 -73.92,-424.87 16.82,-62.55 43.18,-122.05 80.65,-170.19l270.24 -308.79 120.67 -137.88c0.11,-0.11 0.23,-0.19 0.35,-0.28 127.4,-101.43 243.42,404.03 91.04,609.02l-0.01 0.01z"/>
   <path class="fil15" d="M1482.7 3052.55l-19.85 119.76 -57.74 348.49 -10.15 -273.28c-71.15,71.33 -158.28,136.23 -268.71,182.28 -12.2,7.26 -23.8,10.45 -34.66,10.05 -85.89,-3 -126.61,-229.04 -73.92,-424.87 4.62,122.67 23.74,229.84 73.63,254 43.33,20.98 102.35,2.79 161.41,-30.4 49.02,-27.57 98.07,-65.48 138.21,-99.88 53.94,-46.22 91.78,-86.13 91.78,-86.13l0 -0.02z"/>
   <path class="fil5" d="M2064.4 2252.89c156.09,23.14 297.87,143.09 297.87,143.09l-40.02 1129.97 128.75 1033.02 -439.29 0c30.02,-411.18 108.47,-1338.77 52.7,-2306.09l-0.02 0z"/>
   <path class="fil5" d="M2358.01 2393.06c0,0 191.69,452.96 223.77,1186.71 8.85,202.5 -285.65,904.5 -285.65,904.5l-339.26 0 333.88 -800.82c0,0 -236.42,-745.52 -169.11,-988.7 67.32,-243.17 160.21,-358.52 236.37,-301.69l0.01 0z"/>
   <polygon class="fil15" points="1965.16,4473.56 1960.05,4468.54 2311.31,3599.61 2199.2,3116.46 2204.88,3113.28 2318,3600.72 2317.21,3602.67 "/>
   <path class="fil5 str0" d="M1739.31 2112.24c-16.49,253.98 -62.21,1280.64 -62.21,1280.64 -100.94,-344.14 -146.22,-593.9 -146.22,-593.9l73.3 -122.72 -117.57 -304.73c80.98,-174.47 252.7,-259.31 252.7,-259.31l0 0.02z"/>
   <path class="fil8" d="M2003.41 2114.07c8.29,276.62 90.36,650.15 74.21,1269.76 100.94,-344.14 131.12,-588.03 131.12,-588.03l-73.3 -122.7 117.57 -304.73c-62.45,-145.34 -249.61,-254.3 -249.61,-254.3l0.01 0z"/>
   <path class="fil12" d="M2079.14 3212.99c0,0 -287.39,-126.81 -216.79,-510.94 34.83,-189.51 242.11,-280.24 128.8,-570.09 -0.49,-1.29 -1,-2.61 -1.53,-3.92l-15.46 -213.48c0,0 107.32,-39.57 146.87,-120.94 -29.54,123.13 4.23,184.78 21.59,210.59 68.22,101.42 140.08,208.65 141.11,391.17 1.96,346.71 -224.38,338.83 -204.55,817.63l-0.02 -0.01z"/>
   <path class="fil13" d="M2092.86 1614.49c50.97,104.19 -49.18,398.7 -220.23,399.62 -107.91,-6.68 -278.18,-165.3 -234.12,-496.27 -30.85,-276.15 78.43,-537.09 234.12,-537.09 155.71,0 254.93,342.58 220.23,633.74z"/>
   <ellipse class="fil13" cx="2115.94" cy="1599.84" rx="51.07" ry="79.52"/>
   <path class="fil12" d="M1990.01 1178.96c-73.23,228.07 -341.79,333.28 -341.79,333.28l-42.43 9.55 -11.83 2.67c0,0 -22.45,-200.06 59.26,-383.63 81.72,-183.57 211.79,-166.89 211.79,-166.89 0,0 26.1,-1.35 55.46,8.48 48.48,16.22 105.88,62.94 69.55,196.55l-0 0z"/>
   <path class="fil16" d="M1920.45 982.41c-87.98,19.67 -171.89,64.64 -234.32,166.8 -56.52,92.49 -74.86,284.44 -80.35,372.58l-11.84 2.68c0,0 -22.45,-200.06 59.26,-383.63 81.72,-183.57 211.79,-166.89 211.79,-166.89 0,0 26.1,-1.37 55.46,8.48l0.01 -0.02z"/>
   <path class="fil12" d="M1878.07 1171.63c-43.3,-152.71 -8.54,-196.02 -8.54,-196.02 0,0 130.06,-16.7 211.79,166.89 81.73,183.57 31.5,376.48 31.5,376.48 0,0 -197.07,53.32 -234.75,-347.35z"/>
   <ellipse class="fil13" cx="1624.24" cy="1595.5" rx="51.07" ry="79.52"/>
   <path class="fil0" d="M1642.76 1710.78c0,0 42.26,118.43 124.33,150.2 4.52,1.74 7.29,8.85 6.27,15.94l0 0c-1.05,7.26 -5.7,11.81 -10.35,10.11 -23.87,-8.7 -91.09,-45.09 -134.41,-162l14.17 -14.25z"/>
   <ellipse class="fil0" transform="matrix(0.660495 -0.324035 0.208093 1.0285 1625.7 1659.99)" rx="47.07" ry="64.55"/>
   <ellipse class="fil5" transform="matrix(0.660495 -0.324035 0.208093 1.0285 1613.66 1665.88)" rx="49.78" ry="68.26"/>
   <path class="fil8" d="M1627.03 1661.62c4.52,22.34 -0.3,44.62 -10.77,49.76 -10.47,5.14 -22.62,-8.82 -27.15,-31.17 -4.52,-22.34 0.3,-44.63 10.77,-49.76 10.47,-5.14 22.62,8.81 27.14,31.17l0.01 0z"/>
   <path class="fil0" d="M1654.43 1691.84c-0.2,0 -0.4,-0.02 -0.6,-0.07 -1.99,-0.52 -3.32,-3.43 -2.99,-6.53 5.84,-54.6 -7.06,-114.11 -22.35,-137.93 -17.83,-27.76 -39.93,-5.63 -40.87,-4.67 -1.69,1.73 -3.94,1.01 -5.05,-1.59 -1.11,-2.61 -0.65,-6.11 1.01,-7.84 0.28,-0.28 27.95,-28.27 50.03,6.11 16.94,26.37 30.69,88.89 24.39,147.82 -0.3,2.78 -1.84,4.72 -3.59,4.72l0.01 -0.02z"/>
   <path class="fil17" d="M1636.37 1513.28c0,0 239.43,-92.09 296.96,-307.58 36.28,-148.52 -22.28,-226.78 -22.28,-226.78 0,0 58.98,36.02 57.01,189.66 -3.1,240.87 -331.69,344.7 -331.69,344.7z"/>
   <path class="fil18" d="M1862.91 1719.12c-8.21,0 -26.17,-1.5 -28.85,-14.35 -3.19,-15.31 25.14,-135.18 30.85,-159.05 0.49,-2.06 1.96,-3.12 3.29,-2.33 1.32,0.77 2,3.06 1.51,5.1 -16.49,68.91 -32.5,145.29 -30.79,153.84 1.43,6.91 16.98,9.3 27.06,8.76 0.02,0 0.06,0 0.09,0 1.36,0 2.5,1.69 2.55,3.85 0.05,2.19 -1.06,4.03 -2.47,4.11 -0.71,0.04 -1.83,0.07 -3.25,0.07l0.02 0z"/>
   <path class="fil17" d="M1815.2 1834.25c0,0 87.52,14.65 160.92,-49.81 -19.76,126.02 -109.17,191.97 -160.92,49.81z"/>
   <path class="fil0" d="M1746.44 1603.87l0 0c-6.38,0 -11.6,-8.12 -11.6,-18.06l0 -36.13c0,-9.94 5.22,-18.06 11.6,-18.06l0 0c6.38,0 11.6,8.13 11.6,18.06l0 36.13c0,9.94 -5.22,18.06 -11.6,18.06z"/>
   <path class="fil0" d="M1993.13 1606.79l0 0c-6.39,0 -11.6,-8.12 -11.6,-18.06l0 -36.12c0,-9.94 5.22,-18.06 11.6,-18.06l0 0c6.38,0 11.6,8.12 11.6,18.06l0 36.12c0,9.94 -5.22,18.06 -11.6,18.06z"/>
   <path class="fil19" d="M2021.08 1647.12c0,8.33 -13.01,15.08 -29.04,15.08 -16.04,0 -29.04,-6.75 -29.04,-15.08 0,-8.33 13.01,-15.08 29.04,-15.08 16.04,0 29.04,6.75 29.04,15.08z"/>
   <path class="fil19" d="M1776.92 1647.12c0,8.33 -13.01,15.08 -29.04,15.08 -16.04,0 -29.04,-6.75 -29.04,-15.08 0,-8.33 13.01,-15.08 29.04,-15.08 16.04,0 29.04,6.75 29.04,15.08z"/>
   <path class="fil18" d="M2103.99 1643.5c0,0 0,0 0,0 -1.41,0 -2.55,-1.78 -2.55,-3.97 0,-2.5 0.26,-61.44 23.81,-71.3 1.36,-0.58 2.77,0.69 3.13,2.81 0.36,2.12 -0.44,4.31 -1.81,4.87 -19.77,8.27 -20.03,63.04 -20.03,63.6 0,2.19 -1.14,3.97 -2.55,3.97l-0 0.01z"/>
   <polygon class="fil13" points="1401.98,2529.49 1307.58,2362.41 1473.41,2119.12 1549.96,2194.07 "/>
   <path class="fil13" d="M1469.23 2128.54c0.81,-14.35 35.09,-271.38 32.69,-265.31 34.07,-67.41 108.34,16.53 111.2,125.31 0,0 -31.54,184.86 -73.04,222.92 -74.88,67.91 -70.85,-82.92 -70.85,-82.92l0 -0.01z"/>
   <path class="fil13" d="M1501.8 1862.69c0,0 60.67,-261.48 62.44,-260.15 1.78,1.33 17.11,6.28 14.63,44.98 -2.48,38.7 -43.61,251.65 -43.61,251.65l-33.46 -36.46 0 -0.02z"/>
   <path class="fil13" d="M1529.59 1884.05c0,0 89.4,-235.15 91.08,-233.23 1.69,1.9 16.97,11.59 9.66,50.98 -7.31,39.39 -64.35,212.49 -64.35,212.49l-36.4 -30.22 0 -0.02z"/>
   <path class="fil13" d="M1536.43 1926.93c2.69,-7.48 58.35,-76.39 71.03,-85.38 12.67,-8.98 82.86,-10.84 82.86,-10.84 0,0 3.57,30.93 -23.29,34.8 -26.87,3.86 -46.19,22.3 -46.19,22.3l-44.01 112.99 -40.38 -73.84 -0.01 -0.02z"/>
   <path class="fil13" d="M1575.2 1998.63c0,0 15.52,-82.1 49.81,-86.86 32.83,-4.56 70.3,47.62 70.3,47.62 0,0 -0.82,18.23 -23.69,11.72 -22.87,-6.49 -28.75,-15.66 -28.75,-15.66l-23.37 10.74 -18.54 83.67 -25.76 -51.26 0 0.02z"/>
   <path class="fil5 str0" d="M1407.44 2099.45c-14.99,-12.4 -30.1,-24.74 -45.54,-35.86l-253.91 735.83 -79.39 168.94c-101.87,256.87 34.4,622.22 264.32,286.76 43.41,-63.36 55.65,-144.42 55.65,-144.42l64.07 -247.56 104.37 -403.35 83.63 -177.7c-61.61,-67.77 -126.58,-127.54 -193.18,-182.63l-0.01 -0.01z"/>
   <path class="fil8" d="M1290.59 3218.89l-4.87 -5.59c18.44,-38.86 32.27,-82.77 45.63,-125.22 2.83,-9 5.66,-17.99 8.52,-26.89 17.62,-52.91 33.03,-102.78 48.49,-156.99 8.94,-32 17.89,-63.83 26.8,-95.53 29.92,-106.46 58.19,-207.01 85.61,-312.19l0.29 -0.84c21.62,-50.51 44.76,-100.56 67.12,-148.94 9.3,-20.14 18.94,-40.96 28.22,-61.31l4.93 5.46c-9.3,20.39 -18.92,41.2 -28.24,61.37 -22.28,48.21 -45.31,98.02 -66.84,148.27 -27.41,105.17 -56.97,210.29 -85.54,311.98 -8.91,31.7 -17.86,63.53 -26.8,95.56 -15.52,54.42 -30.98,104.45 -48.64,157.48 -2.84,8.83 -5.66,17.8 -8.48,26.77 -13.48,42.84 -27.41,87.14 -46.19,126.68l-0 -0.05z"/>
   <path class="fil20" d="M2715.53 3775.39c-14.47,40.5 -33.15,81.24 -56.9,121.6 0,0 -49.61,-128.07 -58.48,-297.57 -6.8,-130.02 10.4,-284.42 92.34,-424.1 0,0 132.81,292.88 23.04,600.07z"/>
   <path class="fil21" d="M2715.53 3775.39c-14.47,40.5 -33.15,81.24 -56.9,121.6 0,0 -49.61,-128.07 -58.48,-297.57l115.38 175.97z"/>
   <path class="fil21" d="M2657.24 3892.13c-2.83,-69.6 -2.94,-141.48 -1.47,-210.43l-40.02 -77.7 1.4 -1.74 38.72 75.17c1.31,-58.84 3.76,-115.48 6.6,-166.65l-0.67 0.84 -40.35 -78.33 1.4 -1.74 39.75 77.14c1.7,-30.31 3.54,-58.7 5.37,-84.44 0.02,-0.28 0.04,-0.54 0.06,-0.83l0 0 0 0c9.35,-131.15 20.41,-224.11 20.53,-225.05l1.76 0.52c-0.11,0.92 -11.02,92.58 -20.32,222.2l54.76 -64.67 1.08 2.23 -56.12 66.27c-3.05,42.9 -6.13,93.03 -8.52,147.3l69.21 -65.68 0.94 2.4 -70.3 66.7c-4.28,98.41 -6.33,210.05 -2.01,316.36l-1.8 0.17 -0 -0.04z"/>
   <path class="fil22" d="M2732.97 3905.92c-24.83,25.54 -53.46,48.28 -86.5,67.01 0,0 -6.09,-149.28 36.26,-306.03 32.48,-120.22 93.47,-244.88 207.56,-309.95 0,0 31.07,355.25 -157.32,548.96l0 0.01z"/>
   <path class="fil21" d="M2732.97 3905.92c-24.83,25.54 -53.46,48.28 -86.5,67.01 0,0 -6.09,-149.28 36.26,-306.03l50.24 239.01 0 0.01z"/>
   <path class="fil21" d="M2865.57 3543.55l-0.3 -2.75 -67.74 18.04c46.65,-108.33 83.49,-181.83 83.85,-182.56l-1.41 -1.73c-0.37,0.75 -37.74,75.3 -84.87,184.93l-0.01 0 0 0.02c-0.09,0.22 -0.2,0.45 -0.29,0.67 -9.26,21.54 -19.3,45.39 -29.78,71.07l-12.41 -97.01 -1.76 0.55 12.6 98.49 0.85 -0.26c-17.69,43.34 -36.64,91.85 -55.23,143.11l-1.35 3.73c-21.73,60.13 -42.93,123.98 -61.03,187.77l1.64 1.12c27.64,-97.44 62.54,-195.03 95.49,-279.25l82.13 -8.69 -0.12 -2.78 -80.86 8.55c18.2,-46.43 35.79,-88.7 51.19,-124.56l69.42 -18.49 0 0.01z"/>
   <path class="fil22" d="M2705.31 3991.45c0,0 22.24,-545.25 -285.24,-720.6 0,0 -46.57,532.36 285.24,720.6z"/>
   <path class="fil21" d="M2705.07 3985.24c-21.17,-74.63 -45.98,-149.32 -71.4,-219.65l14.62 -114.3 -2.06 -0.64 -14.14 110.55c-21.75,-59.98 -43.92,-116.7 -64.61,-167.42l0.99 0.32 14.74 -115.22 -2.06 -0.63 -14.52 113.48c-12.27,-30.03 -24.02,-57.94 -34.85,-83.15 -0.12,-0.26 -0.23,-0.52 -0.35,-0.8l0 -0.02 -0.02 0c-55.14,-128.26 -98.85,-215.49 -99.29,-216.35l-1.65 2.01c0.43,0.87 43.52,86.84 98.1,213.58l-79.25 -21.12 -0.35 3.23 81.21 21.63c18.02,41.96 38.59,91.42 59.89,145.72l-94.6 -10 -0.14 3.26 96.09 10.15c38.57,98.54 79.38,212.7 111.72,326.68l1.9 -1.31 0.02 0.04z"/>
   <polygon class="fil23" points="2815.86,3824.39 2784.89,4211.1 2555.26,4211.1 2528.22,3873.53 2524.28,3824.39 "/>
   <path class="fil24" d="M2815.86 3824.39l-30.98 386.7 -118.46 0c74.61,-51.71 120.21,-177.73 111.84,-250.08 -9.36,-80.82 -229.7,-87.08 -250.04,-87.5l-3.93 -49.12 291.58 0z"/>
   <rect class="fil23" x="2516.06" y="3821.86" width="308.02" height="43.42"/>
   <polygon class="fil24" points="2816.8,4212.16 2517.51,4212.16 2507.12,4180.21 2827.2,4180.21 "/>
   <path class="fil8" d="M3905.13 3040.02l-229.93 1126.79 -617.56 0 0 47.68 607.83 0 35.15 0c66.85,-326 217.72,-1059.73 244.76,-1174.46l-40.24 0 0 0 -0.01 -0.01z"/>
   <polygon class="fil9" points="3945.86,3040.02 3700.81,4214.48 3870.2,4214.48 4670.72,4214.48 4910.39,3040.02 "/>
   <polygon class="fil8" points="4347.11,3800.08 4275.46,3800.08 4347.59,3429.06 4419.23,3429.06 "/>
   <polygon class="fil8" points="4217.37,3670.36 4239.06,3558.8 4477.33,3558.8 4455.63,3670.36 "/>
   <path class="fil8" d="M1533.37 3040.02l229.94 1126.79 617.56 0 0 47.68 -607.83 0 -35.15 0c-66.87,-326 -217.73,-1059.73 -244.76,-1174.46l40.24 0 0 0 0 -0.01z"/>
   <polygon class="fil9" points="1492.63,3040.02 1737.69,4214.48 1568.3,4214.48 767.78,4214.48 528.11,3040.02 "/>
   <polygon class="fil8" points="1091.39,3800.08 1163.04,3800.08 1090.9,3429.06 1019.26,3429.06 "/>
   <polygon class="fil8" points="1221.12,3670.36 1199.43,3558.8 961.17,3558.8 982.87,3670.36 "/>
   <path class="fil9" d="M1195.8 1996.85l-640.15 0c-34.15,0 -61.83,-43.1 -61.83,-96.28l0 -1108.74c0,-53.17 27.68,-96.28 61.83,-96.28l640.15 0c34.15,0 61.83,43.1 61.83,96.28l0 1108.74c0,53.18 -27.68,96.28 -61.83,96.28z"/>
   <rect class="fil5" x="606.35" y="868.94" width="207.11" height="352.13"/>
   <path class="fil8" d="M711.15 1049.61c12.87,0 24.74,-9.76 32.33,-24.67 5.6,-10.79 8.92,-24.67 8.92,-40.06 0,-35.45 -18.48,-64.73 -41.24,-64.73 -23.09,0 -41.57,29.28 -41.57,64.73 0,15.42 3.29,29.28 8.9,40.06 7.59,14.89 19.47,24.67 32.65,24.67l0.02 0z"/>
   <path class="fil8" d="M784.18 1171.78l0.02 -54.43c-11.93,-67.8 -140.67,-65.06 -146.46,0l-0.04 54.43 146.46 0 0 0z"/>
   <path class="fil8" d="M1134.26 919.23l-259.09 0c-6.09,0 -11.05,-7.69 -11.05,-17.19l0 -9.9c0,-9.49 4.94,-17.2 11.05,-17.2l259.09 0c6.09,0 11.04,7.71 11.04,17.2l0 9.9c0,9.49 -4.94,17.19 -11.04,17.19z"/>
   <path class="fil8" d="M1134.26 1038.22l-259.09 0c-6.09,0 -11.05,-7.69 -11.05,-17.18l0 -9.9c0,-9.49 4.94,-17.19 11.05,-17.19l259.09 0c6.09,0 11.04,7.69 11.04,17.19l0 9.9c0,9.49 -4.94,17.18 -11.04,17.18z"/>
   <path class="fil8" d="M1134.26 1169.31l-259.09 0c-6.09,0 -11.05,-7.69 -11.05,-17.19l0 -9.9c0,-9.49 4.94,-17.19 11.05,-17.19l259.09 0c6.09,0 11.04,7.69 11.04,17.19l0 9.9c0,9.49 -4.94,17.2 -11.04,17.2l0 -0.01z"/>
   <path class="fil8 str1" d="M857.84 1391.26l-248.29 0c-4.26,0 -7.72,-5.38 -7.72,-12.02l0 -20.24c0,-6.64 3.46,-12.02 7.72,-12.02l248.29 0c4.26,0 7.72,5.38 7.72,12.02l0 20.24c0,6.64 -3.46,12.02 -7.72,12.02z"/>
   <path class="fil8" d="M857.84 1529.78l-248.29 0c-4.26,0 -7.72,-5.38 -7.72,-12.02l0 -20.24c0,-6.64 3.46,-12.02 7.72,-12.02l248.29 0c4.26,0 7.72,5.38 7.72,12.02l0 20.24c0,6.64 -3.46,12.02 -7.72,12.02z"/>
   <path class="fil8" d="M857.84 1668.3l-248.29 0c-4.26,0 -7.72,-5.38 -7.72,-12.02l0 -20.24c0,-6.64 3.46,-12.02 7.72,-12.02l248.29 0c4.26,0 7.72,5.39 7.72,12.02l0 20.24c0,6.64 -3.46,12.02 -7.72,12.02z"/>
   <path class="fil8" d="M857.84 1806.81l-248.29 0c-4.26,0 -7.72,-5.38 -7.72,-12.02l0 -20.24c0,-6.64 3.46,-12.02 7.72,-12.02l248.29 0c4.26,0 7.72,5.39 7.72,12.02l0 20.24c0,6.64 -3.46,12.02 -7.72,12.02z"/>
   <rect class="fil5" x="914.63" y="1332.69" width="240.61" height="483.85"/>
   <path class="fil9" d="M2163.31 995.51l640.3 0c23.69,0 42.89,-29.9 42.89,-66.79l0 -427.65c0,-36.89 -19.2,-66.79 -42.89,-66.79l-640.3 0c-23.69,0 -42.89,29.9 -42.89,66.79l0 427.65c0,36.89 19.2,66.77 42.89,66.77l0 0.02z"/>
   <polygon class="fil8" points="2240.27,904.82 2240.27,1158.02 2405.99,899.94 "/>
   <ellipse class="fil8" cx="2707.61" cy="720.13" rx="31.64" ry="49.27"/>
   <ellipse class="fil8" cx="2601.53" cy="720.13" rx="31.64" ry="49.27"/>
   <ellipse class="fil8" cx="2495.43" cy="720.13" rx="31.64" ry="49.27"/>
   <ellipse class="fil8" cx="2389.35" cy="720.13" rx="31.64" ry="49.27"/>
   <ellipse class="fil8" cx="2283.27" cy="720.13" rx="31.64" ry="49.27"/>
   <path class="fil9" d="M1966.72 409.65l-431.19 0c-15.95,0 -28.89,-20.15 -28.89,-44.98l0 -287.98c0,-24.83 12.94,-44.98 28.89,-44.98l431.19 0c15.94,0 28.88,20.12 28.88,44.98l0 287.98c0,24.83 -12.94,44.98 -28.88,44.98z"/>
   <polygon class="fil8" points="1914.9,348.59 1914.9,519.08 1803.28,345.31 "/>
   <ellipse class="fil8" cx="1600.17" cy="224.2" rx="21.31" ry="33.18"/>
   <ellipse class="fil8" cx="1671.61" cy="224.2" rx="21.31" ry="33.18"/>
   <ellipse class="fil8" cx="1743.05" cy="224.2" rx="21.31" ry="33.18"/>
   <ellipse class="fil8" cx="1814.49" cy="224.2" rx="21.31" ry="33.18"/>
   <ellipse class="fil8" cx="1885.94" cy="224.2" rx="21.31" ry="33.18"/>
   <path class="fil9" d="M4534.98 1232.01l-264.63 0c-38.12,0 -69.15,48.31 -69.15,107.68l0 412.08c0,59.4 31.03,107.71 69.15,107.71l264.63 0c38.12,0 69.15,-48.31 69.15,-107.71l0 -412.09c0,-59.36 -31.02,-107.68 -69.15,-107.68l0 0.02zm0 605.77l-264.63 0c-30.44,0 -55.2,-38.58 -55.2,-86.01l0 -364.7 375.05 0 0 364.7c0,47.41 -24.76,86.01 -55.2,86.01l-0.01 0z"/>
   <rect class="fil8" x="4305.31" y="1459.84" width="54.95" height="82.51"/>
   <rect class="fil5" x="4377.41" y="1459.84" width="54.95" height="82.51"/>
   <rect class="fil5" x="4445.08" y="1459.84" width="54.95" height="82.51"/>
   <rect class="fil5" x="4517.19" y="1459.84" width="54.95" height="82.51"/>
   <rect class="fil5" x="4233.21" y="1571.16" width="54.95" height="82.51"/>
   <rect class="fil5" x="4305.31" y="1571.16" width="54.95" height="82.51"/>
   <rect class="fil5" x="4377.41" y="1571.16" width="54.95" height="82.51"/>
   <rect class="fil5" x="4445.08" y="1571.16" width="54.95" height="82.51"/>
   <rect class="fil5" x="4517.19" y="1571.16" width="54.95" height="82.51"/>
   <rect class="fil5" x="4233.21" y="1682.48" width="54.95" height="82.51"/>
   <rect class="fil5" x="4305.31" y="1682.48" width="54.95" height="82.51"/>
   <rect class="fil5" x="4377.41" y="1682.48" width="54.95" height="82.51"/>
   <rect class="fil5" x="4445.08" y="1682.48" width="54.95" height="82.51"/>
   <ellipse class="fil9" cx="2674.81" cy="1787.41" rx="237.23" ry="369.4"/>
   <path class="fil8" d="M2576.57 1584.98l-4.89 7.61 -0.64 -1 -51.26 79.81 62.19 96.84 27.73 -43.18c33.69,44.22 71.28,102.7 99.84,155.26l-27.79 43.27 62.19 96.84 10.28 -16c-0.34,0.9 -0.72,1.74 -1.19,2.47l47.27 -73.6c24.92,-38.81 -198.79,-387.15 -223.71,-348.34l-0.02 0.01z"/>
   <ellipse class="fil9" cx="4044.63" cy="905.2" rx="127.37" ry="198.33"/>
   <polygon class="fil8" points="4122.42,943.48 4028.93,943.48 4028.93,764.94 4046.59,764.94 4046.59,915.96 4122.42,915.96 "/>
   <ellipse class="fil9" cx="3350.68" cy="187.84" rx="120.63" ry="187.84"/>
   <path class="fil8" d="M3333.83 223.46l0 -5.07c0,-17.55 4.61,-30.87 17.26,-48.43 7.01,-9.85 9.23,-17.84 9.23,-27.14 0,-10.11 -3.76,-18.37 -11.96,-18.37 -9.74,0 -13,10.38 -13.85,23.15l-24.09 0c0.84,-22.36 9.91,-52.69 38.28,-52.44 28.03,0 36.23,28.21 36.23,48.97 0,16.77 -3.42,28.21 -15.73,46.05 -7.35,10.63 -9.75,19.41 -9.75,30.33l0 2.92 -25.63 0 0 0 0.01 0.02zm0 57.74l0 -44.17 25.65 0 0 44.17 -25.65 0z"/>
  </g>
 </g>
</svg>
