<?xml version="1.0" standalone="no"?>
<!DOCTYPE svg PUBLIC "-//W3C//DTD SVG 20010904//EN"
 "http://www.w3.org/TR/2001/REC-SVG-20010904/DTD/svg10.dtd">
<svg version="1.0" xmlns="http://www.w3.org/2000/svg"
 width="1120.000000pt" height="1120.000000pt" viewBox="0 0 1120.000000 1120.000000"
 preserveAspectRatio="xMidYMid meet">

<g transform="translate(0.000000,1120.000000) scale(0.100000,-0.100000)"
fill="#000000" stroke="none">

<path d="M5384 9130 c-318 -22 -687 -101 -983 -211 -186 -69 -510 -230 -660
-329 -431 -283 -749 -600 -1026 -1025 -116 -178 -135 -211 -216 -376 -82 -165
-110 -231 -160 -374 -92 -266 -139 -456 -176 -715 -25 -177 -25 -653 0 -825
96 -651 326 -1171 754 -1705 184 -230 446 -483 693 -669 568 -428 1379 -687
2057 -657 494 22 945 138 1398 361 382 187 699 417 1006 731 351 359 633 825
792 1309 207 627 239 1244 97 1841 -56 238 -127 429 -250 679 -256 518 -619
966 -1041 1283 -234 176 -598 376 -854 471 -248 91 -561 165 -825 195 -164 19
-454 26 -606 16z m226 -145 c0 -24 -3 -25 -55 -25 l-55 0 0 -40 0 -40 55 0
c48 0 55 -3 55 -19 0 -17 -8 -20 -52 -23 -57 -3 -66 -14 -54 -64 6 -22 12 -24
60 -24 49 0 54 -2 49 -20 -5 -18 -14 -20 -89 -20 l-84 0 0 84 c0 45 -3 110 -6
144 l-7 61 64 4 c35 2 76 4 92 5 23 2 27 -2 27 -23z m-220 -5 c0 -16 -7 -20
-36 -20 l-37 0 7 -102 c4 -55 10 -114 13 -130 5 -26 3 -28 -25 -28 -34 0 -35
5 -47 110 -3 30 -8 72 -11 94 l-6 38 -49 -4 c-46 -5 -49 -4 -49 18 0 20 6 23
68 29 37 3 74 8 82 9 8 2 32 4 53 5 31 1 37 -2 37 -19z m553 9 c69 -36 96 -99
77 -180 -17 -70 -64 -109 -131 -109 -27 0 -65 7 -85 15 -92 38 -93 209 -1 265
36 22 106 26 140 9z m237 -32 c46 -9 65 -17 65 -27 0 -11 -13 -15 -55 -15 -60
0 -70 -6 -70 -47 0 -24 4 -27 45 -34 35 -5 45 -10 45 -25 0 -16 -8 -19 -49
-19 -54 0 -54 0 -67 -72 -5 -34 -10 -38 -35 -38 -16 0 -29 3 -29 6 0 11 41
259 45 272 5 15 21 15 105 -1z m-1056 -84 c22 -121 21 -155 -6 -181 -28 -26
-70 -42 -109 -42 -68 0 -90 34 -117 175 l-19 95 24 6 c13 4 26 4 29 1 3 -3 14
-43 24 -89 29 -132 46 -156 98 -137 31 12 36 48 22 149 -12 95 -10 110 20 110
15 0 21 -15 34 -87z m-276 20 c-2 -9 -21 -22 -44 -30 l-42 -14 29 -115 c16
-63 27 -119 24 -124 -4 -6 -17 -10 -30 -10 -21 0 -25 9 -51 116 -32 128 -22
120 -108 98 -22 -5 -26 -3 -26 14 0 17 12 25 68 41 162 48 185 51 180 24z
m1630 -8 c21 -6 22 -11 22 -106 0 -60 4 -99 10 -99 6 0 29 25 53 56 86 114 79
109 115 90 18 -9 32 -20 32 -24 0 -15 -80 -246 -87 -253 -5 -4 -18 -3 -30 2
l-22 8 29 87 c17 48 29 89 27 90 -1 2 -27 -29 -57 -69 -31 -39 -63 -73 -72
-75 -26 -5 -39 32 -45 131 -5 64 -9 84 -14 67 -4 -14 -17 -60 -30 -103 -20
-70 -24 -77 -43 -71 -12 4 -22 7 -24 9 -2 2 43 160 69 243 8 23 16 31 27 28
10 -2 27 -7 40 -11z m-1920 -72 c5 -10 29 -72 52 -137 41 -114 42 -120 24
-133 -10 -7 -23 -12 -29 -10 -5 2 -25 44 -42 93 -18 49 -42 111 -52 137 l-20
48 22 9 c32 13 35 12 45 -7z m-85 -32 c3 -15 -4 -21 -34 -30 -22 -7 -39 -18
-39 -25 0 -8 17 -64 39 -126 l38 -112 -24 -11 c-31 -14 -33 -10 -74 113 -17
52 -35 99 -39 103 -4 5 -22 1 -39 -8 -34 -17 -71 -12 -71 9 0 17 185 103 226
105 7 1 14 -7 17 -18z m2420 -35 c44 -19 55 -29 51 -41 -4 -10 -13 -14 -23
-11 -59 19 -101 29 -106 24 -3 -3 -7 -18 -8 -33 -2 -24 3 -29 38 -39 29 -8 41
-18 43 -34 4 -27 -21 -29 -73 -8 -19 8 -35 14 -35 13 0 -1 -6 -20 -14 -41
l-14 -40 49 -22 c28 -13 49 -30 49 -39 0 -21 -16 -19 -86 9 -32 12 -67 26 -76
29 -14 5 -10 20 31 119 26 62 51 121 54 132 9 23 39 18 120 -18z m192 -90 c77
-41 106 -127 71 -209 -19 -48 -70 -87 -112 -87 -37 0 -174 66 -174 83 0 12
106 215 122 235 12 14 36 9 93 -22z m-2871 8 c11 -28 7 -33 -31 -40 -55 -10
-73 -22 -73 -49 0 -34 31 -48 93 -40 46 6 54 4 74 -17 30 -31 42 -68 32 -95
-18 -48 -142 -101 -167 -71 -9 11 -1 17 39 31 52 19 77 51 65 82 -5 14 -15 15
-60 10 -84 -11 -136 25 -136 93 0 35 29 63 90 91 56 24 66 25 74 5z m-173
-216 c71 -126 78 -157 37 -172 -21 -7 -40 -3 -103 27 -42 20 -90 46 -106 58
-16 11 -29 17 -29 13 0 -3 25 -46 56 -95 31 -49 55 -91 53 -93 -2 -2 -13 -8
-24 -14 -22 -12 -31 -1 -127 157 l-51 84 24 18 c13 10 32 19 41 19 9 0 60 -25
113 -56 53 -30 99 -54 101 -51 3 3 -18 43 -45 90 -28 47 -51 89 -51 93 0 8 31
33 42 34 3 0 35 -51 69 -112z m1844 97 c223 -23 363 -50 540 -105 384 -119
728 -319 1075 -625 202 -178 397 -424 544 -684 150 -264 297 -711 342 -1037
24 -176 25 -560 1 -729 -55 -386 -137 -652 -291 -950 -156 -302 -300 -501
-525 -725 -504 -502 -1103 -793 -1770 -860 -331 -33 -746 17 -1096 131 -283
92 -645 296 -885 497 -132 111 -376 363 -460 477 -521 702 -714 1557 -531
2355 109 473 276 816 590 1210 272 342 743 695 1151 863 259 106 486 160 800
190 96 10 391 5 515 -8z m1425 -23 c0 -4 -21 -38 -46 -77 -25 -38 -55 -91 -67
-117 -23 -51 -36 -58 -58 -32 -12 14 -7 28 30 100 24 45 57 99 73 118 25 30
33 34 49 26 10 -6 19 -14 19 -18z m153 -92 c36 -31 52 -66 36 -76 -5 -3 -25 8
-45 25 -19 17 -45 31 -59 31 -58 0 -127 -106 -106 -162 6 -15 24 -34 41 -43
17 -9 30 -22 27 -28 -6 -21 -46 -19 -77 3 -67 47 -76 126 -25 201 59 84 145
104 208 49z m-3689 -195 l78 -109 -22 -18 c-13 -10 -27 -17 -31 -16 -4 2 -42
52 -83 113 -71 103 -74 110 -59 127 9 10 21 17 27 15 6 -2 46 -52 90 -112z
m3876 50 c11 -13 6 -40 -30 -155 -51 -166 -53 -168 -75 -150 -13 11 -16 24
-11 61 6 44 4 49 -23 68 -36 26 -61 27 -93 1 -24 -19 -26 -19 -42 -1 -9 9 -16
21 -16 24 0 12 241 167 260 167 9 0 23 -7 30 -15z m153 -123 c16 -17 15 -20
-9 -43 -33 -30 -134 -162 -134 -174 0 -5 16 -25 35 -45 32 -32 34 -38 21 -50
-13 -10 -25 -4 -76 40 -33 29 -60 59 -60 67 0 8 15 29 33 46 17 18 60 65 95
105 35 39 67 72 71 72 4 0 15 -8 24 -18z m-4245 -99 c116 -76 121 -81 104 -96
-22 -20 -36 -21 -61 -5 -16 10 -26 7 -60 -16 -45 -32 -46 -35 -29 -82 9 -26 9
-36 -1 -48 -8 -9 -17 -16 -22 -16 -14 0 -66 119 -95 219 l-28 93 24 20 c13 10
28 17 34 15 6 -3 66 -40 134 -84z m-157 -210 c59 -71 60 -73 43 -98 -9 -14
-19 -25 -23 -25 -3 0 -22 22 -41 47 -19 26 -64 78 -99 115 l-63 68 23 19 24
20 38 -37 c22 -20 66 -69 98 -109z m4654 63 c39 -30 63 -82 47 -98 -9 -9 -22
-1 -51 31 -25 27 -46 41 -58 39 -16 -3 -18 -13 -15 -75 3 -70 2 -74 -31 -109
-30 -33 -37 -36 -69 -30 -43 8 -94 57 -103 97 -12 55 17 67 38 17 20 -46 51
-71 76 -63 19 6 21 14 21 84 0 64 4 83 21 105 27 35 80 35 124 2z m-4810 -89
c53 -30 105 -100 105 -141 0 -34 -34 -93 -92 -159 l-33 -38 -112 106 c-62 59
-113 110 -113 114 0 5 19 30 42 56 77 88 129 104 203 62z m4951 -112 c30 -19
59 -77 51 -99 -8 -21 -47 -21 -47 -1 0 9 -12 27 -26 40 -51 48 -130 22 -154
-49 -13 -39 -4 -68 35 -115 19 -22 25 -35 17 -43 -26 -26 -92 37 -119 114 -11
32 -11 44 1 71 38 89 165 133 242 82z m-5076 -202 c33 -22 65 -43 72 -46 9 -3
6 -12 -10 -28 -20 -22 -33 -24 -138 -29 l-116 -5 81 -52 c45 -29 81 -56 81
-61 0 -5 -6 -15 -14 -21 -11 -10 -22 -9 -48 5 -25 12 -172 108 -217 141 -2 2
1 14 7 28 10 22 16 25 49 20 21 -3 80 -2 131 2 l94 8 -79 48 c-43 26 -84 51
-92 56 -12 8 -12 13 3 35 l17 27 60 -43 c33 -24 86 -62 119 -85z m5210 36 c9
-17 8 -23 -7 -35 -38 -31 -225 -154 -234 -154 -8 0 -11 5 -13 31 -1 9 219 176
236 178 4 1 12 -8 18 -20z m86 -142 c35 -69 40 -107 15 -107 -5 0 -22 23 -37
50 -27 49 -44 59 -73 41 -12 -8 -13 -16 -2 -53 7 -24 15 -51 17 -60 4 -13 0
-18 -15 -18 -11 0 -22 8 -25 18 -4 9 -14 28 -24 40 l-18 24 -32 -19 -32 -20
34 -56 c34 -56 34 -57 14 -68 -24 -13 -28 -9 -90 90 l-36 58 126 76 c70 42
130 77 134 77 3 0 23 -33 44 -73z m-5523 -128 c151 -87 154 -90 128 -113 -19
-18 -23 -16 -128 44 -152 87 -158 92 -142 118 8 12 15 22 17 22 1 0 57 -32
125 -71z m-58 -112 c131 -73 136 -77 129 -105 -8 -28 -8 -28 -141 45 -145 81
-150 85 -135 118 11 25 14 26 30 13 9 -8 62 -40 117 -71z m5680 42 c5 -20 -8
-55 -59 -154 -36 -71 -66 -129 -66 -131 0 -1 48 24 108 55 l107 57 8 -30 c14
-57 13 -59 -24 -67 -20 -5 -78 -26 -129 -49 -118 -51 -126 -51 -135 -1 -6 34
1 53 50 150 62 125 65 121 -53 49 -66 -40 -84 -40 -95 1 -4 16 14 28 102 70
58 27 120 59 136 69 33 22 41 19 50 -19z m-5835 -309 c60 -27 114 -50 119 -50
5 0 22 22 37 50 26 48 44 57 44 22 -1 -26 -56 -157 -66 -157 -8 0 -254 123
-263 131 -5 4 8 54 14 54 3 0 55 -22 115 -50z m5933 -54 c65 -27 124 -123 115
-186 -2 -19 -10 -26 -30 -28 -26 -3 -28 0 -28 30 0 34 -30 93 -59 115 -28 21
-85 16 -114 -11 -38 -35 -44 -85 -17 -142 25 -50 19 -64 -26 -64 -21 0 -45 42
-59 103 -18 87 70 190 168 196 10 1 32 -5 50 -13z m-6006 -140 c62 -20 116
-36 120 -36 5 0 16 18 25 40 15 36 40 52 51 33 3 -5 -12 -57 -32 -118 l-37
-110 -42 -3 c-47 -4 -56 -15 -65 -79 -5 -40 -3 -45 34 -74 37 -29 50 -61 30
-74 -11 -6 -221 132 -265 176 -27 25 -29 31 -17 52 11 20 26 26 119 40 59 10
121 17 137 17 37 0 75 10 75 19 0 4 -65 29 -144 55 l-144 48 10 30 c6 16 15
27 22 25 6 -2 62 -21 123 -41z m6137 -130 c24 -10 38 -25 49 -55 31 -77 15
-154 -28 -137 -11 4 -15 20 -15 59 0 41 -5 58 -20 72 -33 30 -51 2 -60 -92 -9
-109 -38 -146 -111 -146 -78 0 -154 167 -102 225 17 19 48 24 57 9 3 -5 -2
-23 -10 -41 -17 -34 -14 -91 7 -116 14 -17 65 -18 75 -2 5 7 13 50 20 96 13
89 35 127 78 135 11 2 22 5 24 6 1 0 18 -5 36 -13z m-6265 -1067 c21 -59 33
-66 113 -68 26 -1 49 -5 53 -10 3 -5 -19 -31 -50 -58 -60 -53 -62 -60 -40
-143 8 -30 13 -56 11 -58 -2 -2 -26 11 -54 27 -27 17 -55 31 -62 31 -7 0 -37
-14 -66 -31 -60 -34 -61 -34 -39 56 l14 60 -62 63 -61 62 46 0 c92 0 102 5
133 77 16 36 32 60 36 56 5 -5 18 -34 28 -64z m6251 14 c11 -32 28 -64 37 -70
9 -7 43 -13 74 -13 32 0 60 -4 63 -9 4 -5 -21 -33 -53 -63 l-60 -54 18 -72
c11 -40 17 -72 15 -72 -2 0 -28 14 -57 30 -30 17 -59 30 -66 30 -7 0 -33 -14
-57 -31 -25 -17 -48 -29 -51 -26 -3 3 0 29 6 57 19 89 16 100 -45 148 -30 24
-54 47 -54 52 0 6 22 10 49 10 79 0 95 10 121 79 12 34 26 61 31 61 4 0 17
-26 29 -57z m-440 -1218 c0 -7 -9 -15 -20 -18 -26 -7 -37 -54 -17 -74 15 -15
19 -13 55 19 22 20 49 39 61 43 29 9 74 -15 85 -46 11 -32 -16 -93 -51 -116
-22 -15 -26 -15 -40 0 -15 15 -14 17 10 26 37 14 63 56 47 76 -20 24 -52 17
-90 -19 -34 -33 -36 -34 -67 -21 -17 7 -39 25 -48 38 -14 22 -15 29 -1 60 15
37 42 58 63 50 7 -3 13 -11 13 -18z m-5336 -50 c3 -9 -17 -50 -49 -98 -29 -46
-59 -95 -66 -110 -16 -36 -39 -35 -39 2 0 17 5 33 10 36 19 12 10 37 -32 86
-28 33 -49 49 -65 49 -14 0 -23 6 -23 15 0 11 13 15 53 16 28 0 72 4 97 8 74
14 107 12 114 -4z m5236 -90 c0 -3 -10 -24 -21 -47 l-21 -42 23 -19 c23 -19
24 -19 45 6 12 14 24 32 27 39 3 10 8 10 16 2 10 -9 9 -20 -4 -50 -15 -36 -15
-39 1 -51 26 -19 30 -17 65 31 19 27 37 42 45 39 8 -3 14 -7 14 -9 0 -7 -32
-56 -63 -97 l-29 -37 -33 28 c-18 16 -58 43 -89 61 -31 18 -56 38 -56 45 0 18
58 106 70 106 5 0 10 -2 10 -5z m-5150 -60 c7 -9 11 -17 9 -19 -2 -1 -38 -29
-79 -61 -100 -78 -96 -73 -79 -87 8 -7 27 -28 43 -45 27 -30 28 -33 9 -33 -13
0 -37 21 -66 59 l-47 59 93 70 c50 39 95 71 98 71 4 1 12 -6 19 -14z m5076
-96 c4 -7 -7 -22 -25 -36 -25 -20 -31 -32 -31 -63 0 -31 6 -44 35 -69 20 -17
45 -31 56 -31 24 0 69 46 69 71 0 14 7 19 26 19 l25 0 -23 -41 c-27 -49 -72
-89 -99 -89 -56 0 -129 73 -129 129 0 68 71 150 96 110z m-4976 -49 c12 -8 9
-15 -20 -37 -19 -16 -56 -47 -82 -70 l-48 -42 32 -38 c64 -76 62 -73 48 -73
-13 0 -130 118 -130 131 0 3 10 10 23 16 12 6 50 36 85 67 67 60 69 61 92 46z
m4989 -246 c12 -11 12 -16 2 -28 -10 -12 -31 -14 -114 -10 l-102 6 53 -47 c45
-41 66 -75 45 -75 -8 0 -94 66 -148 114 -56 50 -39 59 90 51 l100 -7 -52 54
c-50 50 -62 75 -46 91 3 4 41 -25 82 -65 42 -39 82 -78 90 -84z m-4809 1 c0
-5 -32 -47 -71 -92 -45 -53 -75 -80 -85 -76 -24 9 -17 22 59 104 64 70 100 94
97 64z m75 -125 c0 -41 -3 -93 -7 -115 l-7 -40 22 29 c42 57 75 91 82 84 4 -3
-23 -38 -59 -78 -36 -39 -66 -76 -66 -81 0 -13 -28 -11 -32 3 -3 7 1 37 8 68
7 30 15 79 19 109 l6 54 -43 -53 c-24 -29 -50 -62 -59 -72 -14 -18 -16 -18
-29 -3 -14 17 -13 19 90 128 62 66 75 60 75 -33z m4430 70 c3 -5 -6 -20 -20
-33 l-26 -22 30 -29 c29 -28 32 -28 49 -13 20 18 42 22 42 9 0 -5 -9 -17 -20
-27 -24 -21 -25 -33 -5 -59 15 -19 16 -19 53 17 35 35 62 47 62 29 0 -4 -23
-30 -51 -57 -38 -37 -53 -46 -57 -35 -3 8 -38 49 -78 90 l-73 76 32 32 c33 33
51 39 62 22z m-28 -164 c43 -46 77 -89 75 -95 -8 -24 -35 -9 -85 46 -29 32
-63 67 -76 80 -22 21 -24 53 -3 53 5 0 45 -38 89 -84z m-156 -24 c-43 -40 -49
-63 -30 -106 14 -31 67 -57 100 -50 13 4 36 20 51 36 25 29 48 31 48 4 0 -29
-89 -86 -134 -86 -49 0 -116 79 -116 136 0 35 95 133 112 116 7 -7 -1 -21 -31
-50z m-4048 -15 c92 -89 99 -132 31 -207 -22 -24 -45 -40 -59 -40 -26 0 -127
65 -169 109 l-29 30 74 85 c41 46 77 85 81 85 3 1 35 -27 71 -62z m3922 -87
c3 -6 -2 -13 -12 -17 -55 -19 -73 -73 -25 -73 15 0 41 4 59 9 26 8 37 5 67
-15 45 -31 46 -54 4 -99 -37 -40 -98 -59 -98 -31 0 9 7 16 15 16 28 0 72 28
78 49 3 11 -1 28 -8 37 -11 16 -18 16 -52 6 -62 -19 -100 -15 -117 10 -23 33
-20 47 20 84 36 35 58 42 69 24z m-3755 -45 c9 -11 6 -21 -17 -52 -16 -21 -49
-64 -72 -97 -39 -52 -45 -57 -59 -43 -13 14 -12 19 15 54 17 21 47 64 68 96
41 61 46 65 65 42z m147 -131 c7 -19 -25 -225 -37 -238 -10 -10 -33 31 -24 45
8 13 -29 53 -74 81 -33 20 -35 20 -63 4 -27 -16 -30 -16 -35 -1 -8 21 -10 20
98 76 100 52 125 58 135 33z m3450 -184 c4 0 26 14 47 30 44 33 56 37 56 16 0
-13 -101 -86 -119 -86 -9 0 -116 156 -128 186 -3 9 0 20 8 24 10 7 28 -14 71
-81 32 -49 61 -89 65 -89z m-132 33 c52 -47 95 -90 95 -95 0 -14 -43 -9 -62 9
-17 15 -21 15 -66 -3 -45 -19 -47 -22 -50 -63 -3 -37 -6 -42 -22 -38 -11 3
-25 -2 -31 -10 -32 -38 -108 -55 -150 -33 -26 15 -59 82 -59 123 0 41 34 81
85 103 42 17 45 17 45 1 0 -7 -15 -20 -32 -28 -18 -8 -39 -26 -48 -41 -13 -24
-13 -32 0 -70 9 -26 25 -48 42 -57 25 -14 31 -14 78 9 l52 25 -6 116 c-5 111
0 139 26 139 4 0 50 -39 103 -87z m-3088 3 c-3 -6 -24 -53 -47 -103 -39 -85
-60 -108 -74 -84 -6 9 66 174 85 197 12 15 42 6 36 -10z m70 -37 c7 -7 22 -54
34 -105 13 -52 25 -94 29 -94 3 0 14 29 24 65 16 58 21 65 43 65 20 0 24 -4
18 -17 -4 -10 -21 -56 -38 -103 -17 -47 -32 -87 -33 -88 -9 -12 -43 13 -48 36
-16 67 -49 172 -55 172 -3 0 -17 -29 -29 -65 -23 -63 -34 -73 -58 -57 -14 8
74 202 92 202 5 0 15 -5 21 -11z m2662 -151 c38 -94 39 -102 23 -114 -18 -13
-32 -10 -32 9 -1 7 -16 52 -35 101 -18 50 -32 94 -29 98 15 24 36 -2 73 -94z
m-2371 22 c18 -11 37 -20 43 -20 5 0 50 -14 100 -31 69 -24 87 -35 79 -44 -7
-9 -21 -10 -45 -5 -28 6 -35 5 -35 -7 0 -8 -10 -48 -22 -89 -17 -55 -27 -74
-40 -74 -24 0 -23 15 7 94 14 37 25 72 25 79 0 16 -57 50 -70 42 -6 -4 -24 5
-41 19 -32 27 -73 34 -85 15 -4 -7 13 -28 40 -51 52 -44 60 -79 27 -119 -34
-43 -141 -19 -141 32 0 20 0 20 28 1 42 -29 60 -33 77 -16 22 22 20 28 -30 77
-48 48 -55 70 -28 99 21 24 70 23 111 -2z m2257 8 c32 -15 67 -79 68 -126 1
-39 -18 -59 -95 -98 -72 -36 -80 -33 -106 40 -13 35 -32 81 -42 102 -11 21
-18 39 -16 42 11 10 124 52 143 52 12 0 34 -5 48 -12z m-215 -61 c0 -8 -18
-19 -40 -26 -37 -11 -40 -14 -34 -39 10 -42 13 -43 52 -27 35 15 62 14 62 -3
0 -4 -19 -12 -42 -18 -42 -9 -43 -10 -41 -48 2 -22 5 -41 7 -44 3 -2 26 3 52
12 57 19 64 20 64 3 0 -10 -139 -61 -147 -53 -9 8 -63 210 -58 215 8 8 96 39
113 40 6 1 12 -5 12 -12z m-1770 -61 c0 -27 -15 -112 -30 -168 -8 -28 -16 -38
-30 -38 -11 0 -20 3 -20 8 0 6 38 179 46 210 6 22 34 13 34 -12z m1610 9 c0
-8 12 -58 27 -111 23 -81 25 -97 13 -105 -8 -5 -18 -9 -21 -9 -3 0 -14 35 -24
78 l-19 77 -12 -79 c-11 -69 -23 -95 -45 -96 -6 0 -35 38 -88 115 -19 28 -31
41 -27 30 4 -11 16 -51 26 -90 16 -65 17 -70 1 -76 -9 -4 -17 -5 -19 -4 -2 2
-14 49 -27 106 -21 96 -22 105 -7 117 9 7 21 11 27 9 5 -2 32 -36 59 -75 58
-84 64 -81 73 31 3 39 10 78 16 85 13 17 47 15 47 -3z m-1485 -19 c60 -15 90
-27 90 -37 0 -8 -8 -13 -20 -11 -58 9 -59 9 -67 -38 -26 -135 -30 -150 -43
-150 -24 0 -26 18 -10 101 20 107 20 107 -17 117 -18 4 -34 16 -36 25 -4 21
-8 21 103 -7z m153 -41 c1 -1 -2 -22 -7 -46 -6 -24 -11 -65 -11 -91 0 -39 4
-50 24 -63 19 -13 29 -14 45 -6 23 13 27 23 40 109 11 70 16 82 36 82 11 0 13
-10 9 -47 -18 -156 -37 -190 -100 -180 -45 8 -82 31 -93 60 -4 12 -4 62 2 110
9 83 11 87 31 81 11 -4 22 -8 24 -9z m985 -20 c1 -6 -20 -14 -46 -19 -47 -9
-48 -10 -41 -40 9 -43 14 -46 56 -37 20 5 39 6 42 3 14 -13 3 -21 -39 -28
l-45 -6 2 -51 c2 -41 0 -52 -14 -55 -13 -2 -18 11 -29 70 -6 40 -13 91 -13
113 l-1 39 55 12 c61 13 71 13 73 -1z m-724 -15 c47 -5 121 -12 164 -16 51 -4
77 -10 74 -17 -2 -7 -22 -10 -50 -8 l-47 3 0 -41 0 -41 45 0 c33 0 45 -4 45
-15 0 -11 -12 -15 -45 -15 -45 0 -45 0 -45 -35 l0 -35 50 0 c38 0 50 -4 50
-15 0 -12 -15 -15 -77 -15 l-76 0 7 108 6 107 -44 2 -45 1 -7 -99 c-6 -90 -8
-99 -26 -99 -19 0 -20 5 -13 93 4 50 8 97 9 102 0 6 -18 11 -41 13 -29 2 -43
8 -43 18 0 17 0 17 109 4z m515 -10 c53 -20 83 -113 55 -173 -23 -50 -111 -73
-169 -44 -57 28 -76 131 -33 179 36 41 98 57 147 38z"/>
<path d="M5825 8930 c-42 -46 -25 -169 26 -185 81 -26 146 105 88 179 -26 33
-86 37 -114 6z"/>
<path d="M6983 8536 c-20 -40 -33 -81 -30 -89 3 -9 25 -22 48 -28 41 -13 42
-12 70 18 52 59 56 125 10 160 -38 30 -60 16 -98 -61z"/>
<path d="M5495 8066 c-87 -40 -135 -115 -135 -208 1 -82 42 -153 124 -212 19
-13 20 -22 10 -302 -10 -275 -2 -1209 10 -1221 2 -3 43 5 90 17 l84 23 6 111
c15 275 26 777 23 1058 l-2 308 42 40 c54 50 73 88 80 156 8 75 -16 132 -77
187 -78 70 -166 85 -255 43z"/>
<path d="M4930 7696 c-52 -15 -105 -41 -198 -98 -190 -116 -403 -175 -677
-185 -184 -7 -348 8 -469 44 -12 3 2 -21 42 -73 73 -96 103 -125 162 -156 43
-22 55 -23 225 -22 173 1 185 2 317 37 201 53 385 133 544 237 42 27 81 50 86
50 24 0 51 -26 107 -103 84 -117 141 -166 313 -270 19 -12 28 -27 30 -49 2
-21 9 -34 19 -36 22 -4 29 36 29 173 l0 112 -38 7 c-49 7 -115 55 -129 92 -6
16 -19 52 -28 79 -24 69 -97 139 -166 159 -62 19 -107 19 -169 2z"/>
<path d="M6110 7701 c-78 -24 -151 -90 -176 -160 -9 -25 -21 -58 -26 -74 -15
-39 -69 -83 -128 -104 l-51 -18 3 -132 c2 -72 6 -135 10 -139 12 -11 36 15 43
47 5 24 24 41 88 83 139 91 194 138 262 224 91 114 95 116 186 54 213 -143
522 -255 779 -282 209 -22 313 3 397 94 66 73 135 156 129 156 -3 0 -48 -8
-98 -17 -132 -25 -475 -24 -613 1 -177 32 -317 86 -485 190 -117 73 -238 102
-320 77z"/>
<path d="M4951 7479 c-14 -5 -47 -26 -75 -46 -64 -46 -283 -151 -397 -191
-187 -66 -468 -109 -616 -95 l-67 6 31 -39 c71 -89 180 -166 274 -195 58 -18
75 -19 130 -9 162 28 365 117 568 249 69 45 130 81 136 81 18 0 175 78 175 87
0 4 -6 16 -13 25 -12 16 -17 15 -63 -8 -75 -37 -131 -41 -173 -12 -36 24 -51
48 -31 48 7 0 23 -9 37 -20 16 -12 40 -20 62 -19 43 0 123 29 128 46 3 7 -15
33 -39 57 -38 39 -46 43 -67 35z"/>
<path d="M6184 7444 c-24 -26 -41 -51 -38 -56 11 -17 87 -48 119 -48 17 0 48
9 69 21 48 25 58 17 23 -19 -38 -37 -114 -36 -184 2 -44 25 -48 26 -60 10 -7
-10 -13 -20 -13 -24 0 -10 59 -41 143 -74 45 -18 147 -74 226 -125 207 -135
351 -198 500 -222 64 -9 79 -8 139 10 94 29 226 133 274 216 4 6 -43 11 -130
12 -171 2 -333 29 -495 83 -144 48 -364 152 -438 207 -81 60 -86 61 -135 7z"/>
<path d="M6027 7281 l-27 -18 26 -39 c120 -178 303 -362 434 -436 67 -38 162
-68 219 -68 91 0 235 63 295 128 16 18 15 19 -36 25 -129 16 -287 88 -488 223
-100 68 -169 106 -221 125 -42 15 -97 38 -121 53 -52 30 -45 30 -81 7z"/>
<path d="M5075 7259 c-27 -16 -72 -36 -100 -44 -27 -8 -106 -53 -175 -100
-198 -134 -397 -222 -541 -241 l-53 -7 39 -34 c74 -65 194 -113 281 -113 136
0 339 118 497 291 72 78 167 211 167 234 0 15 -38 46 -55 44 -5 -1 -32 -14
-60 -30z"/>
<path d="M5146 7121 c-125 -177 -256 -307 -378 -376 l-42 -24 27 -6 c54 -14
170 -1 222 25 74 35 230 195 304 310 34 52 61 97 61 101 0 3 -27 22 -59 41
l-59 35 -76 -106z"/>
<path d="M5908 7193 l-57 -35 35 -57 c97 -153 233 -301 331 -358 44 -26 57
-28 163 -31 126 -2 123 -6 31 53 -70 44 -246 226 -341 352 -47 62 -89 112 -95
112 -5 -1 -36 -17 -67 -36z"/>
<path d="M5253 6755 c-248 -67 -404 -295 -338 -494 33 -101 146 -220 268 -282
l37 -20 48 33 c26 18 82 51 126 74 l79 41 -69 38 c-156 85 -215 140 -230 213
-16 81 58 144 174 144 37 1 78 -2 90 -6 l22 -7 0 140 0 141 -77 -1 c-43 0
-102 -7 -130 -14z"/>
<path d="M5733 6758 c-5 -7 -10 -70 -12 -140 l-3 -126 79 5 c67 5 85 2 120
-16 23 -11 49 -31 57 -43 34 -49 6 -142 -60 -197 -48 -39 -178 -103 -259 -125
-354 -100 -530 -245 -528 -436 1 -108 68 -215 178 -285 84 -54 86 -54 153 13
l60 58 -50 35 c-28 19 -68 51 -89 71 -32 32 -39 45 -39 77 0 33 5 44 33 65 41
32 125 70 287 131 347 132 497 230 571 375 34 68 38 195 8 275 -44 118 -198
238 -339 265 -73 14 -156 13 -167 -2z"/>
<path d="M5825 5864 c-27 -13 -77 -35 -109 -49 l-59 -25 64 -39 c147 -89 131
-140 -78 -256 -177 -100 -253 -185 -253 -289 0 -54 20 -90 61 -112 44 -23 51
-17 29 26 -11 21 -20 50 -20 64 0 62 113 134 249 160 46 8 103 25 127 36 64
32 139 103 168 162 52 104 26 254 -56 323 -36 31 -59 31 -123 -1z"/>
<path d="M5575 5763 c-27 -8 -53 -18 -58 -22 -7 -7 6 -169 19 -234 l6 -28 41
23 c30 17 44 32 48 53 9 43 10 225 2 224 -5 0 -30 -7 -58 -16z"/>
<path d="M5636 5294 c-44 -16 -106 -52 -106 -62 0 -4 32 -8 70 -8 69 -2 96
-12 133 -49 13 -12 15 -27 10 -60 -6 -48 1 -54 39 -34 23 13 48 67 48 106 0
38 -33 89 -69 108 -36 18 -73 18 -125 -1z"/>
<path d="M5487 5193 c-14 -13 -7 -56 14 -84 30 -43 54 -53 88 -36 23 12 31 12
46 0 28 -19 72 -16 84 6 17 31 -8 44 -64 31 -57 -13 -75 -2 -75 45 0 28 -4 33
-31 39 -40 8 -54 8 -62 -1z"/>
<path d="M5630 5160 c11 -20 60 -29 60 -10 0 12 -33 30 -55 30 -13 0 -14 -4
-5 -20z"/>
<path d="M5604 5023 c-10 -16 -28 -45 -41 -65 l-23 -38 -105 0 -106 0 16 -30
c14 -26 15 -90 12 -498 -1 -257 -6 -477 -11 -489 -8 -23 -8 -23 85 -23 l94 0
-3 499 -3 499 48 42 c26 23 72 58 101 78 28 19 52 39 52 43 0 12 -7 11 -32 -2
-14 -8 -23 -8 -31 0 -18 18 -36 13 -53 -16z"/>
<path d="M6991 4934 c-138 -37 -213 -130 -213 -265 0 -139 52 -199 273 -315
83 -43 168 -94 189 -112 97 -82 86 -217 -22 -274 -37 -20 -58 -23 -143 -23
-89 1 -107 4 -157 28 -34 17 -74 47 -98 75 l-40 47 2 -95 3 -95 89 -22 c173
-44 300 -40 410 11 195 90 237 332 83 474 -29 26 -99 68 -189 111 -79 39 -159
82 -178 96 -76 56 -101 146 -60 213 74 121 363 79 422 -62 l13 -31 7 40 c4 22
7 68 7 102 l1 62 -52 14 c-143 40 -251 47 -347 21z"/>
<path d="M4137 4923 c-3 -5 -54 -123 -115 -263 -209 -485 -302 -693 -332 -736
l-29 -44 89 0 90 0 0 43 c1 27 17 79 48 152 l47 109 245 -3 c172 -2 247 -6
252 -14 5 -7 26 -59 49 -116 39 -99 41 -113 24 -153 -7 -17 3 -18 119 -18
l127 0 -25 43 c-27 46 -235 519 -347 791 -39 92 -75 179 -81 192 -10 22 -17
24 -84 24 -40 0 -75 -3 -77 -7z m152 -416 c50 -125 91 -229 91 -232 0 -3 -95
-5 -211 -5 -165 0 -210 3 -206 13 36 88 186 420 200 445 15 25 22 30 28 20 4
-7 48 -115 98 -241z"/>
<path d="M4916 4903 c12 -23 12 -983 0 -1005 -7 -17 1 -18 104 -18 103 0 112
1 105 18 -21 50 -25 123 -24 517 0 333 3 438 13 468 l14 37 -110 0 c-102 0
-109 -1 -102 -17z"/>
<path d="M5665 4890 c20 -38 20 -174 0 -565 -14 -283 -24 -387 -40 -427 -6
-16 1 -18 70 -18 70 0 76 2 69 18 -10 19 -9 567 1 710 4 50 10 92 14 92 3 0
28 -64 55 -142 26 -79 89 -262 139 -408 l92 -265 48 0 49 0 42 135 c58 185
226 673 236 684 14 14 22 -149 23 -491 l2 -333 99 0 c90 0 97 2 91 18 -8 17
-15 140 -34 562 -14 295 -14 416 -1 441 10 18 6 19 -102 19 l-113 -1 -125
-380 c-69 -210 -128 -383 -132 -385 -8 -5 -14 10 -159 433 l-114 333 -113 0
-113 0 16 -30z"/>
<path d="M7542 8204 c-43 -37 -45 -46 -11 -64 17 -10 22 -5 39 36 12 26 19 51
18 55 -2 5 -22 -8 -46 -27z"/>
<path d="M3431 8074 c2 -5 13 -33 23 -62 11 -29 23 -52 26 -52 9 0 54 49 49
53 -26 22 -101 68 -98 61z"/>
<path d="M3100 7762 c-24 -25 -29 -35 -21 -50 16 -31 151 -144 165 -139 16 7
46 68 46 97 0 53 -58 109 -120 117 -34 5 -43 1 -70 -25z"/>
<path d="M2510 6491 l-35 -6 46 -32 47 -32 10 39 c11 44 10 45 -68 31z"/>
<path d="M2792 4223 c-9 -3 -4 -14 14 -36 15 -18 30 -32 34 -32 3 0 21 17 39
38 l33 37 -53 -1 c-30 0 -60 -3 -67 -6z"/>
<path d="M3477 3402 c-26 -26 -47 -53 -47 -59 0 -23 83 -83 115 -83 54 0 98
67 74 112 -18 36 -61 78 -79 78 -9 0 -37 -22 -63 -48z"/>
<path d="M3817 3144 c-41 -27 -41 -36 4 -59 33 -17 34 -17 43 48 2 20 2 37 -2
36 -4 0 -24 -11 -45 -25z"/>
<path d="M7130 3031 l0 -53 38 7 c20 4 39 9 42 11 2 3 -15 24 -38 47 l-42 42
0 -54z"/>
<path d="M6662 2860 c-18 -4 -36 -10 -39 -13 -8 -9 49 -158 63 -164 18 -7 72
24 85 48 22 42 -12 121 -56 132 -11 3 -35 1 -53 -3z"/>
<path d="M5750 2643 c-36 -13 -50 -36 -50 -83 0 -38 5 -53 26 -74 31 -30 44
-32 84 -11 21 11 31 25 36 49 14 79 -36 141 -96 119z"/>
</g>
</svg>
