<?xml version="1.0" encoding="UTF-8"?>
<!DOCTYPE svg PUBLIC "-//W3C//DTD SVG 1.1//EN" "http://www.w3.org/Graphics/SVG/1.1/DTD/svg11.dtd">
<!-- Creator: CorelDRAW 2019 (64-Bit) -->
<svg xmlns="http://www.w3.org/2000/svg" xml:space="preserve" width="8.25834in" height="4.6in" version="1.1" style="shape-rendering:geometricPrecision; text-rendering:geometricPrecision; image-rendering:optimizeQuality; fill-rule:evenodd; clip-rule:evenodd"
viewBox="0 0 8224.2 4580.99"
 xmlns:xlink="http://www.w3.org/1999/xlink"
 xmlns:xodm="http://www.corel.com/coreldraw/odm/2003">
 <defs>
  <style type="text/css">
   <![CDATA[
    .str2 {stroke:#26AC62;stroke-width:11.07;stroke-miterlimit:2.61313}
    .str1 {stroke:#26AC62;stroke-width:11.29;stroke-miterlimit:2.61313}
    .str0 {stroke:#26AC62;stroke-width:2.99;stroke-miterlimit:2.61313}
    .str3 {stroke:#BADC58;stroke-width:10.13;stroke-linecap:round;stroke-linejoin:round;stroke-miterlimit:2.61313}
    .str4 {stroke:#6AB04C;stroke-width:11.29;stroke-linecap:round;stroke-linejoin:round;stroke-miterlimit:2.61313}
    .fil6 {fill:none;fill-rule:nonzero}
    .fil12 {fill:#130F40;fill-rule:nonzero}
    .fil26 {fill:#262743;fill-rule:nonzero}
    .fil2 {fill:#26AC62;fill-rule:nonzero}
    .fil8 {fill:#4834D4;fill-rule:nonzero}
    .fil29 {fill:#686DE0;fill-rule:nonzero}
    .fil25 {fill:#6AB04C;fill-rule:nonzero}
    .fil10 {fill:#BADC58;fill-rule:nonzero}
    .fil0 {fill:#BFE7D1;fill-rule:nonzero}
    .fil18 {fill:#EB4D4B;fill-rule:nonzero}
    .fil7 {fill:#F6E58D;fill-rule:nonzero}
    .fil28 {fill:#FF7979;fill-rule:nonzero}
    .fil11 {fill:#FFBE76;fill-rule:nonzero}
    .fil9 {fill:#FFC2BD;fill-rule:nonzero}
    .fil13 {fill:white;fill-rule:nonzero}
    .fil4 {fill:black;fill-rule:nonzero;fill-opacity:0.039216}
    .fil23 {fill:white;fill-rule:nonzero;fill-opacity:0.090196}
    .fil16 {fill:#B2B3B3;fill-rule:nonzero;fill-opacity:0.101961}
    .fil1 {fill:#898989;fill-rule:nonzero;fill-opacity:0.101961}
    .fil24 {fill:#B2B3B3;fill-rule:nonzero;fill-opacity:0.149020}
    .fil17 {fill:#130F40;fill-rule:nonzero;fill-opacity:0.149020}
    .fil5 {fill:#130F40;fill-rule:nonzero;fill-opacity:0.200000}
    .fil15 {fill:white;fill-rule:nonzero;fill-opacity:0.200000}
    .fil3 {fill:#DFF9FB;fill-rule:nonzero;fill-opacity:0.250980}
    .fil21 {fill:#DFF9FB;fill-rule:nonzero;fill-opacity:0.301961}
    .fil20 {fill:white;fill-rule:nonzero;fill-opacity:0.301961}
    .fil27 {fill:white;fill-rule:nonzero;fill-opacity:0.400000}
    .fil22 {fill:#6AB04C;fill-rule:nonzero;fill-opacity:0.501961}
    .fil14 {fill:#FF7979;fill-rule:nonzero;fill-opacity:0.501961}
    .fil19 {fill:white;fill-rule:nonzero;fill-opacity:0.501961}
   ]]>
  </style>
 </defs>
 <g id="Layer_x0020_1">
  <metadata id="CorelCorpID_0Corel-Layer"/>
  <g id="_2700080812960">
   <rect class="fil0" x="-0" y="3509.08" width="8224.2" height="106.95"/>
   <polygon class="fil1" points="5005.5,4016.21 8224.2,4016.21 8224.2,3644.78 5005.5,3644.78 "/>
   <path class="fil2" d="M2966.17 511.56l-76.51 0 0 -511.56 -56.25 0 0 511.56 -1479.69 0 0 -511.56 -56.25 0 0 511.56 -43.37 0c-172.84,0 -312.95,137.63 -312.95,307.41l0 0 2337.97 0 0 0c0,-169.78 -140.11,-307.41 -312.95,-307.41z"/>
   <path class="fil3" d="M3017.32 602.99l-1849.54 0c-9.08,0 -16.45,-7.24 -16.45,-16.16 0,-8.92 7.37,-16.16 16.45,-16.16l1849.54 0c9.08,0 16.45,7.24 16.45,16.16 0,8.92 -7.37,16.16 -16.45,16.16z"/>
   <ellipse class="fil2" cx="4421.55" cy="817.81" rx="393.79" ry="386.83"/>
   <path class="fil4" d="M4421.55 1204.64c-211.98,0 -384.75,-164.54 -393.38,-370.67 -0.23,5.36 -0.42,10.74 -0.42,16.16 0,213.64 176.3,397.6 393.8,397.6 217.49,0 393.8,-183.96 393.8,-397.6 0,-5.42 -0.19,-10.79 -0.42,-16.16 -8.65,206.14 -181.42,370.67 -393.39,370.67z"/>
   <ellipse class="fil0 str0" cx="4421.55" cy="817.81" rx="344.12" ry="338.03"/>
   <path class="fil2" d="M4435.53 540.78c0,-7.57 -6.27,-13.73 -13.97,-13.73 -7.71,0 -13.98,6.16 -13.98,13.73 0,7.57 6.27,13.72 13.98,13.72 7.7,0 13.97,-6.14 13.97,-13.72z"/>
   <path class="fil2" d="M4435.53 1097.37c0,-7.57 -6.27,-13.73 -13.97,-13.73 -7.71,0 -13.98,6.16 -13.98,13.73 0,7.57 6.27,13.72 13.98,13.72 7.7,0 13.97,-6.15 13.97,-13.72z"/>
   <path class="fil2" d="M4718.83 819.08c0,-7.57 -6.26,-13.73 -13.97,-13.73 -7.7,0 -13.98,6.16 -13.98,13.73 0,7.57 6.27,13.72 13.98,13.72 7.71,0 13.97,-6.14 13.97,-13.72z"/>
   <path class="fil2" d="M4152.22 819.08c0,-7.57 -6.26,-13.73 -13.97,-13.73 -7.7,0 -13.98,6.16 -13.98,13.73 0,7.57 6.27,13.72 13.98,13.72 7.71,0 13.97,-6.14 13.97,-13.72z"/>
   <path class="fil2" d="M4555.05 573.24c-3.95,6.5 -1.8,14.94 4.81,18.83 6.61,3.87 15.22,1.78 19.17,-4.72 1.92,-3.15 2.48,-6.85 1.57,-10.41 -0.91,-3.56 -3.17,-6.55 -6.38,-8.43 -2.19,-1.29 -4.66,-1.96 -7.15,-1.96 -1.14,0 -2.29,0.14 -3.43,0.42 -3.63,0.9 -6.68,3.13 -8.59,6.27z"/>
   <path class="fil2" d="M4264.06 1050.82c-3.96,6.51 -1.8,14.95 4.81,18.84 6.61,3.89 15.22,1.77 19.17,-4.73l0 -0.01c1.92,-3.14 2.48,-6.83 1.57,-10.39 -0.91,-3.56 -3.18,-6.55 -6.38,-8.43 -2.23,-1.31 -4.7,-1.95 -7.14,-1.95 -4.78,0 -9.43,2.39 -12.04,6.68z"/>
   <path class="fil2" d="M4666.3 665.26c-2.39,0 -4.8,0.6 -7.01,1.87 -6.65,3.81 -8.92,12.23 -5.02,18.78 3.88,6.54 12.48,8.77 19.11,4.95 6.65,-3.81 8.92,-12.24 5.03,-18.78 -2.58,-4.36 -7.29,-6.81 -12.11,-6.81z"/>
   <path class="fil2" d="M4180.32 945.89c-1.18,-0.3 -2.39,-0.46 -3.58,-0.46 -2.45,0 -4.85,0.65 -7.02,1.89 -6.65,3.81 -8.92,12.24 -5.04,18.76 3.88,6.56 12.48,8.76 19.12,4.96 6.65,-3.81 8.92,-12.24 5.03,-18.76 -1.87,-3.18 -4.9,-5.44 -8.51,-6.38z"/>
   <path class="fil2" d="M4678.89 936.26c-2.04,-1.05 -4.25,-1.58 -6.49,-1.58 -1.4,0 -2.8,0.22 -4.17,0.64 -3.56,1.1 -6.48,3.48 -8.21,6.73 -3.57,6.7 -0.94,15.03 5.88,18.54 3.32,1.71 7.1,2.03 10.66,0.96 3.56,-1.1 6.49,-3.48 8.22,-6.73 1.73,-3.25 2.07,-6.96 0.96,-10.47 -1.12,-3.5 -3.54,-6.36 -6.85,-8.08z"/>
   <path class="fil2" d="M4164.2 701.89c6.81,3.5 15.29,0.93 18.87,-5.79 1.73,-3.24 2.08,-6.96 0.98,-10.46 -1.11,-3.5 -3.54,-6.38 -6.85,-8.08 -6.83,-3.52 -15.3,-0.93 -18.87,5.78 -1.74,3.25 -2.09,6.96 -0.98,10.47 1.11,3.51 3.55,6.37 6.85,8.08z"/>
   <path class="fil2" d="M4574.83 1064.79c3.66,0.73 7.39,0.02 10.5,-2 3.12,-2.02 5.25,-5.11 6,-8.72 0.74,-3.59 0.02,-7.26 -2.04,-10.32 -2.69,-4 -7.14,-6.16 -11.68,-6.16 -2.64,0 -5.3,0.73 -7.68,2.27 -3.11,2.02 -5.25,5.11 -6,8.71 -0.74,3.59 -0.02,7.26 2.04,10.32 2.06,3.06 5.19,5.16 8.85,5.89z"/>
   <path class="fil2" d="M4262.67 600.28c3.66,0.74 7.39,0.04 10.5,-2 6.43,-4.18 8.2,-12.71 3.96,-19.04 -2.69,-4 -7.14,-6.16 -11.69,-6.16 -2.64,0 -5.3,0.73 -7.68,2.27 -3.11,2.03 -5.25,5.12 -6,8.72 -0.74,3.59 -0.02,7.26 2.04,10.32 2.06,3.06 5.2,5.16 8.86,5.89z"/>
   <path class="fil2" d="M4422.67 672.3c9.08,0.06 16.39,7.36 16.33,16.27l-0.92 119.07 166.88 91.67c7.94,4.35 10.77,14.2 6.33,21.98 -4.42,7.81 -14.46,10.58 -22.38,6.21l-175.38 -96.34c-5.24,-2.88 -8.46,-8.33 -8.42,-14.22l0.98 -128.64c0.08,-8.92 7.49,-16.09 16.58,-16.02z"/>
   <polygon class="fil5" points="6677.12,1788.47 7853.23,1788.47 7853.23,899.94 6677.12,899.94 "/>
   <rect class="fil0" x="6677.12" y="867.63" width="1176.11" height="888.53"/>
   <polygon class="fil5" points="5353.94,1788.47 6530.05,1788.47 6530.05,899.94 5353.94,899.94 "/>
   <rect class="fil0" x="5353.94" y="867.63" width="1176.11" height="888.53"/>
   <rect class="fil2" x="5461.64" y="977.13" width="293.74" height="157.12"/>
   <rect class="fil2" x="5461.64" y="1191.18" width="293.74" height="218.12"/>
   <rect class="fil2" x="5810.65" y="1191.18" width="609.39" height="218.12"/>
   <line class="fil6 str1" x1="5810.65" y1="977.13" x2="6420.03" y2= "977.13" />
   <line class="fil6 str1" x1="5810.65" y1="1029.66" x2="6420.03" y2= "1029.66" />
   <line class="fil6 str1" x1="5810.65" y1="1082.19" x2="6420.03" y2= "1082.19" />
   <line class="fil6 str1" x1="5810.65" y1="1134.72" x2="6094.81" y2= "1134.72" />
   <path class="fil2" d="M5486.44 1505.59l0 0c-13.7,0 -24.81,-10.91 -24.81,-24.37l0 0c0,-13.45 11.11,-24.37 24.81,-24.37l0 0c13.7,0 24.81,10.91 24.81,24.37l0 0c0,13.46 -11.11,24.37 -24.81,24.37z"/>
   <path class="fil2" d="M5486.44 1582.89l0 0c-13.7,0 -24.81,-10.91 -24.81,-24.37l0 0c0,-13.45 11.11,-24.37 24.81,-24.37l0 0c13.7,0 24.81,10.91 24.81,24.37l0 0c0,13.46 -11.11,24.37 -24.81,24.37z"/>
   <path class="fil2" d="M5486.44 1660.2l0 0c-13.7,0 -24.81,-10.91 -24.81,-24.37l0 0c0,-13.45 11.11,-24.37 24.81,-24.37l0 0c13.7,0 24.81,10.91 24.81,24.37l0 0c0,13.46 -11.11,24.37 -24.81,24.37z"/>
   <line class="fil6 str1" x1="5542.49" y1="1481.22" x2="6420.03" y2= "1481.22" />
   <line class="fil6 str1" x1="5542.49" y1="1558.53" x2="6420.03" y2= "1558.53" />
   <line class="fil6 str1" x1="5542.49" y1="1635.84" x2="6420.03" y2= "1635.84" />
   <rect class="fil2" x="6776.74" y="977.13" width="311.59" height="683.07"/>
   <rect class="fil6 str2" x="7142.45" y="1318.67" width="274.08" height="341.54"/>
   <rect class="fil2" x="7476.03" y="1311.9" width="279.52" height="348.3"/>
   <line class="fil6 str1" x1="7139.73" y1="976.89" x2="7749.12" y2= "976.89" />
   <line class="fil6 str1" x1="7139.73" y1="1029.43" x2="7749.12" y2= "1029.43" />
   <line class="fil6 str1" x1="7139.73" y1="1081.96" x2="7749.12" y2= "1081.96" />
   <line class="fil6 str1" x1="7139.73" y1="1191.99" x2="7749.12" y2= "1191.99" />
   <line class="fil6 str1" x1="7139.73" y1="1134.49" x2="7749.12" y2= "1134.49" />
   <line class="fil6 str1" x1="7145.13" y1="1255.76" x2="7429.29" y2= "1255.76" />
   <rect class="fil2" x="361.14" y="999.98" width="1673.36" height="888.53"/>
   <rect class="fil0" x="409.41" y="1043.17" width="1576.83" height="802.14"/>
   <rect class="fil7" x="562.4" y="1480.26" width="208.12" height="204.44"/>
   <ellipse class="fil8" cx="666.47" cy="1503.3" rx="11.44" ry="11.23"/>
   <rect class="fil9" transform="matrix(1.3185 -0.53289 0.423324 1.01068 766.559 1261.61)" width="145.98" height="187.07"/>
   <ellipse class="fil8" cx="871.67" cy="1244.06" rx="11.44" ry="11.23"/>
   <rect class="fil7" transform="matrix(1.3185 -0.53289 0.423324 1.01068 1591.76 1447.59)" width="145.98" height="187.07"/>
   <ellipse class="fil8" cx="1696.86" cy="1430.08" rx="11.44" ry="11.23"/>
   <rect class="fil10" transform="matrix(1.47594 0.320584 -0.226565 1.00651 1159.27 1495.92)" width="137.68" height="198.33"/>
   <ellipse class="fil8" cx="1255.86" cy="1540.51" rx="11.44" ry="11.23"/>
   <path class="fil7" d="M7762.78 3361.32l-500.18 0c-91.24,0 -165.21,-72.66 -165.21,-162.28l0 -595.58c0,-89.63 73.96,-162.28 165.21,-162.28l500.18 0c91.24,0 165.21,72.66 165.21,162.28l0 595.58c0,89.63 -73.98,162.28 -165.21,162.28z"/>
   <path class="fil11" d="M7864.62 3442.92l-703.86 0c-34.99,0 -63.36,-27.87 -63.36,-62.24l0 -38.7c0,-34.37 28.37,-62.24 63.36,-62.24l703.86 0c34.99,0 63.36,27.86 63.36,62.24l0 38.7c0.01,34.37 -28.36,62.24 -63.36,62.24z"/>
   <rect class="fil11" x="7920.04" y="3044.19" width="128.14" height="599.95"/>
   <path class="fil5" d="M7920.05 3263.96l0 380.18 128.15 -0 0 -396.92c-20.74,63.01 -95.14,56.43 -128.15,16.74z"/>
   <polygon class="fil5" points="7920.05,3077.57 8048.2,3077.57 8048.2,3044.19 7920.05,3044.19 "/>
   <path class="fil11" d="M8049.37 3044.18l-130.48 0c-18.57,0 -33.63,-14.79 -33.63,-33.04l0 -51.95c0,-18.25 15.06,-33.04 33.63,-33.04l130.48 0c18.58,0 33.63,14.79 33.63,33.04l0 51.95c-0,18.25 -15.06,33.03 -33.63,33.03z"/>
   <rect class="fil12" x="7953.05" y="3638.31" width="62.12" height="228.4"/>
   <path class="fil7" d="M6811.99 3361.32l-500.18 0c-91.24,0 -165.21,-72.66 -165.21,-162.28l0 -595.58c0,-89.63 73.96,-162.28 165.21,-162.28l500.18 0c91.24,0 165.21,72.66 165.21,162.28l0 595.58c0,89.63 -73.97,162.28 -165.21,162.28z"/>
   <path class="fil11" d="M6913.83 3442.92l-703.86 0c-34.99,0 -63.36,-27.87 -63.36,-62.24l0 -38.7c0,-34.37 28.37,-62.24 63.36,-62.24l703.86 0c34.99,0 63.36,27.86 63.36,62.24l0 38.7c0,34.37 -28.37,62.24 -63.36,62.24z"/>
   <rect class="fil11" x="6969.25" y="3044.19" width="128.14" height="599.95"/>
   <path class="fil5" d="M6969.26 3263.96l0 380.18 128.14 -0 0 -396.92c-20.74,63.01 -95.14,56.43 -128.14,16.74z"/>
   <polygon class="fil5" points="6969.26,3077.57 7097.4,3077.57 7097.4,3044.19 6969.26,3044.19 "/>
   <path class="fil11" d="M7098.57 3044.18l-130.48 0c-18.57,0 -33.63,-14.79 -33.63,-33.04l0 -51.95c0,-18.25 15.06,-33.04 33.63,-33.04l130.48 0c18.57,0 33.63,14.79 33.63,33.04l0 51.95c0,18.25 -15.06,33.03 -33.63,33.03z"/>
   <rect class="fil12" x="7002.26" y="3638.31" width="62.12" height="228.4"/>
   <path class="fil7" d="M5863.45 3361.32l-500.17 0c-91.24,0 -165.21,-72.66 -165.21,-162.28l0 -595.58c0,-89.63 73.96,-162.28 165.21,-162.28l500.17 0c91.24,0 165.21,72.66 165.21,162.28l0 595.58c0,89.63 -73.97,162.28 -165.21,162.28z"/>
   <path class="fil11" d="M5965.29 3442.92l-703.86 0c-34.99,0 -63.36,-27.87 -63.36,-62.24l0 -38.7c0,-34.37 28.37,-62.24 63.36,-62.24l703.86 0c34.99,0 63.36,27.86 63.36,62.24l0 38.7c0.01,34.37 -28.36,62.24 -63.36,62.24z"/>
   <rect class="fil11" x="5069.92" y="3044.19" width="128.14" height="599.95"/>
   <rect class="fil11" x="6020.71" y="3044.19" width="128.14" height="599.95"/>
   <path class="fil5" d="M6020.72 3263.96l0 380.18 128.15 -0 0 -396.92c-20.73,63.01 -95.14,56.43 -128.15,16.74z"/>
   <polygon class="fil5" points="6020.72,3077.57 6148.87,3077.57 6148.87,3044.19 6020.72,3044.19 "/>
   <path class="fil5" d="M5072.18 3263.96l0 380.18 128.14 -0 0 -396.92c-20.74,63.01 -95.14,56.43 -128.14,16.74z"/>
   <polygon class="fil5" points="5072.18,3077.57 5200.33,3077.57 5200.33,3044.19 5072.18,3044.19 "/>
   <path class="fil11" d="M5201.5 3044.18l-130.48 0c-18.57,0 -33.63,-14.79 -33.63,-33.04l0 -51.95c0,-18.25 15.06,-33.04 33.63,-33.04l130.48 0c18.57,0 33.63,14.79 33.63,33.04l0 51.95c0,18.25 -15.07,33.03 -33.63,33.03z"/>
   <path class="fil11" d="M6150.03 3044.18l-130.48 0c-18.57,0 -33.63,-14.79 -33.63,-33.04l0 -51.95c0,-18.25 15.06,-33.04 33.63,-33.04l130.48 0c18.58,0 33.63,14.79 33.63,33.04l0 51.95c0,18.25 -15.06,33.03 -33.63,33.03z"/>
   <rect class="fil12" x="5100.7" y="3638.31" width="62.12" height="228.4"/>
   <rect class="fil12" x="6053.72" y="3638.31" width="62.12" height="228.4"/>
   <path class="fil13" d="M2784.23 1883.61c36.66,-3.23 102.84,95.47 130.64,217.19 23.5,102.85 50.35,240.42 54.26,248.72 3.91,8.29 117.14,254.86 117.14,254.86l-100.12 36.69c0,0 -79.4,-110.76 -130.69,-258.39 -69.13,-198.94 -94.32,-460.12 -71.24,-499.06z"/>
   <path class="fil9" d="M2667.2 1762.06c0,0 -20.33,63.74 9.51,110.56 37.53,58.85 12.52,133.98 -37.46,133.02 -49.99,-0.96 -143.54,-78.01 -104.34,-147.4 18.74,-33.17 13.64,-92.32 13.64,-92.32l118.65 -3.86z"/>
   <path class="fil14" d="M2671.2 1862.52c-21.52,-45.37 -4,-100.45 -4,-100.45l-118.65 3.85c0,0 4.6,53.91 -11.3,87.65 30.42,35.61 112.44,54.56 133.96,8.96z"/>
   <path class="fil0" d="M2337.52 1913.58c40.92,-39.43 193.28,-60.23 193.28,-60.23l107.24 120.59 35.62 -108.8 110.56 18.47c0,0 40.54,91.57 19.07,232.83 1.62,85.72 -35.77,184.66 -33.2,255.64 1.07,29.75 18.93,149.17 27.49,199.97 -135.99,40.41 -296.56,35.32 -426.1,-19.01 16.62,-46.83 65.34,-184.79 24.72,-301.4 -11.29,-32.43 -28.62,-145.86 -28.62,-145.86l-78.92 224.36 -70.6 269.84c0,0 -77.01,-3.96 -107.91,-26.91 0,0 69.6,-250 79.32,-274.06 23.61,-58.43 107.13,-345.98 148.05,-385.42z"/>
   <path class="fil13" d="M2818.07 2372.06c-2.56,-70.98 -2.31,-166.73 -3.94,-252.45 21.47,-141.26 -29.9,-236.01 -29.9,-236.01l-66.67 -12.77c19.86,241.05 -7.25,482.09 -21.09,723.13 39.72,-4.3 78.05,-11.5 113.1,-21.91 -8.57,-50.82 9.57,-170.23 8.5,-199.99z"/>
   <path class="fil13" d="M2324.03 1912.43c-40.92,39.44 -125.45,321.36 -149.07,379.82 -9.73,24.07 -76.82,280.84 -76.82,280.84 30.9,22.94 131.9,26.9 131.9,26.9l71.32 -260.61 66.2 -198.25c0,0 14.3,120.29 16.62,181.21 2.32,60.92 -8.1,183.86 -24.73,230.7 55.67,23.35 121.52,37.54 189.29,43 -3.23,-246.88 -2.74,-498.32 -91.09,-733.67 -49.34,10.75 -110.66,27.9 -133.64,50.05z"/>
   <path class="fil9" d="M2778.75 1631.62c-1.38,-21.65 -12.41,-27.25 -23.49,-23.22 3.06,-35.38 1.8,-60.97 1.8,-60.97 0.21,-36.09 -23.84,-130.36 -150.49,-129.86 -150.73,0.59 -150.76,110.7 -150.76,110.7 0,0 0.27,36.38 7.21,83.36 -12.78,-8.82 -28.01,-5.72 -29.64,20 -2.29,36.06 15.51,72.5 52.77,72.33l-0.04 -0.29c22.85,61.41 61.19,114.31 119.67,114.12 68.97,-0.22 109.23,-55.48 130.2,-114.83 30.39,-5.82 44.85,-38.68 42.77,-71.33z"/>
   <path class="fil14" d="M2543.68 1528.19c63.17,41.09 170.94,49.95 209.25,102.1 5.96,-46.28 4.13,-82.87 4.13,-82.87 0.21,-36.09 -23.84,-130.36 -150.49,-129.86 -150.73,0.59 -150.76,110.7 -150.76,110.7 0,0 2.58,33.84 9.83,81.9 0.69,4.6 7.36,12.75 7.17,23.06 13.68,-36.6 41.01,-64.74 70.87,-105.04z"/>
   <ellipse class="fil12" cx="2540.09" cy="1622.46" rx="14.17" ry="17.64"/>
   <ellipse class="fil12" cx="2680.8" cy="1622.46" rx="14.17" ry="17.64"/>
   <path class="fil12" d="M2528.93 1615.57c-7.82,-0.81 -11.68,-7.21 -14.63,-5.28 -2.95,1.91 8.45,14.39 14.63,15.35 6.18,0.96 0,-10.07 0,-10.07z"/>
   <path class="fil12" d="M2691.23 1615.57c7.82,-0.81 11.68,-7.21 14.63,-5.28 2.95,1.93 -8.45,14.39 -14.63,15.35 -6.18,0.96 0,-10.07 0,-10.07z"/>
   <path class="fil12" d="M2648.34 1590.81c3.76,1.27 44.87,-7.53 49.66,-6.83 4.79,0.7 26.24,9.91 28.35,10.09 2.11,0.17 -16.12,-17.3 -27.41,-19.56 -13.09,-2.63 -47.46,4.64 -49.73,6.24 -2.27,1.59 -4.4,8.88 -0.87,10.06z"/>
   <path class="fil12" d="M2572.14 1590.32c-3.71,1.42 -45.16,-5.67 -49.91,-4.76 -4.76,0.91 -25.79,11 -27.9,11.26 -2.1,0.26 15.36,-17.95 26.55,-20.68 12.97,-3.16 47.62,2.67 49.95,4.17 2.34,1.51 4.8,8.68 1.32,10.02z"/>
   <path class="fil12" d="M2773.61 1438.6c-14.12,-20.54 -30.28,-36.7 -47.8,-49.25 3.14,-8.56 4.83,-17.63 4.83,-27.05 0,-50.71 -48.92,-91.83 -109.27,-91.83 -60.36,0 -109.27,41.12 -109.27,91.83 0,4.87 0.58,9.61 1.45,14.26 -67.29,33.76 -109.27,134.26 -93.27,241.1 15.55,103.87 83.85,126.78 75.56,109.51 -3.73,-7.77 -6.99,-15.52 -10.01,-23.25 -37.03,-0.04 -54.74,-36.36 -52.46,-72.32 1.63,-25.71 16.86,-28.83 29.64,-19.99 9.39,-0.07 18.69,-53.37 80.66,-107.15 61.22,51.36 182.84,24.49 211.58,103.91 11.08,-4.03 22.11,1.57 23.49,23.22 2.07,32.64 -12.38,65.5 -42.76,71.33 -4.65,13.17 -10.31,26.08 -16.96,38.27 -0.19,0.41 -0.35,0.85 -0.54,1.25 -5.8,12.8 33.07,-10.43 66.2,-69.15 34.06,-60.36 35.44,-167.09 -11.08,-234.71z"/>
   <path class="fil14" d="M2472.79 1652.45c-3.3,-11.87 -10.29,-20.33 -15.62,-18.91 -5.33,1.43 -6.99,12.21 -3.69,24.08 3.29,11.87 10.29,20.33 15.62,18.91 5.33,-1.43 6.99,-12.21 3.7,-24.08z"/>
   <path class="fil14" d="M2757.17 1633.72c-5.34,-1.43 -12.33,7.03 -15.62,18.91 -3.29,11.87 -1.64,22.65 3.69,24.08 5.33,1.43 12.33,-7.03 15.62,-18.91 3.29,-11.87 1.64,-22.65 -3.69,-24.08z"/>
   <path class="fil13" d="M2754.62 1599.35c-3.6,2.85 -28.01,40.11 -41.11,60.31 -26.9,-13.33 -81.06,-33.5 -100.35,-32.92 -19.78,0.59 -76.65,25.13 -103.61,41.64 -11.23,-17.37 -41.16,-63.39 -45.16,-66.57 -3.06,-2.42 -5.36,1.29 -4.03,5.74 1.07,3.61 27.39,51.72 37.28,69.73 -21.23,22.9 -9.09,125.44 102.39,136.91 113.31,11.67 140.66,-135.28 125.83,-147.54 11.69,-21.35 31.86,-58.4 32.8,-61.56 1.32,-4.46 -0.99,-8.17 -4.05,-5.75z"/>
   <rect class="fil12" x="1391.57" y="2184.82" width="943.56" height="162.92"/>
   <polygon class="fil15" points="2816.97,2335.71 4129.82,2335.71 4129.82,1300.23 2816.97,1300.23 "/>
   <path class="fil15" d="M3226.66 1300.24c-138.94,88.59 -277.57,180.11 -409.71,278.84l0 269.77c250.53,-190.21 509.42,-370.13 771.28,-548.6l-361.57 0 0 -0.01z"/>
   <path class="fil15" d="M3932.7 1656.75c70.16,-42.41 134.97,-87.46 197.12,-135.09l0 -221.44 -191.04 0c-373.84,261.11 -761.63,506.77 -1121.8,782.76l0 252.71 163.38 0c297.35,-230.63 611.75,-450.03 952.34,-678.95z"/>
   <path class="fil15" d="M4129.81 1798.47c-240.75,184.83 -487.07,359.74 -730.7,537.23l730.7 0 0 -537.23z"/>
   <polygon class="fil16" points="-0,4105.79 4724.14,4105.79 4724.14,3952.88 -0,3952.88 "/>
   <rect class="fil13" x="-0" y="2476.09" width="4618.86" height="1540.12"/>
   <rect class="fil2" x="0" y="2351.57" width="4657.4" height="265.88"/>
   <polygon class="fil17" points="-0,2682.09 4618.87,2682.09 4618.87,2617.46 -0,2617.46 "/>
   <path class="fil2" d="M2309.43 3744.7c-279.85,0 -507.52,-223.65 -507.52,-498.56 0,-274.9 227.68,-498.54 507.52,-498.54 279.85,0 507.53,223.65 507.53,498.54 0,274.91 -227.68,498.56 -507.53,498.56zm0 -964.79c-261.71,0 -474.62,209.15 -474.62,466.23 0,257.09 212.92,466.24 474.62,466.24 261.72,0 474.63,-209.16 474.63,-466.24 0,-257.07 -212.92,-466.23 -474.63,-466.23z"/>
   <polygon class="fil2" points="2577.98,3128.1 2429.61,3128.1 2429.61,2982.35 2189.26,2982.35 2189.26,3128.1 2040.87,3128.1 2040.87,3364.19 2189.26,3364.19 2189.26,3509.95 2429.61,3509.95 2429.61,3364.19 2577.98,3364.19 "/>
   <path class="fil2" d="M4154.69 2353.13l-1354.17 0 0 -1068.16 1354.17 0 0 1068.16zm-1321.28 -32.31l1288.38 0 0 -1003.53 -1288.38 0 0 1003.53z"/>
   <path class="fil16" d="M4556.02 4240.82c0,-56.11 -232.45,-101.6 -519.19,-101.6 -286.74,0 -519.19,45.49 -519.19,101.6 0,56.11 232.45,101.59 519.19,101.59 286.74,0 519.19,-45.48 519.19,-101.59z"/>
   <path class="fil9" d="M3861.09 2298.09c-7.04,-2.58 -40.71,-3.04 -48.21,-3.45 -13.59,-0.74 -12.27,0.58 -22.72,9.15 -12.06,9.88 -23.23,20.81 -33.33,32.62 -4.85,5.65 -16.21,23.25 -11.66,29.16 2.98,3.86 14,1.49 18.7,0 4.69,-1.49 9.92,-11.14 14.14,-13.62 30.59,-18.05 44.06,-30.17 68.55,-18.05 1.24,0.62 16.36,9.52 16.44,10.87 0.07,1.2 -15.38,2.03 -19.39,2.78 -16.22,3 -26.63,-4.09 -35.48,0.74 -2.37,1.29 -8.68,8.57 4.75,17.29 15.66,10.17 69.81,14.91 87.37,8.41 17.57,-6.5 34.19,-16.14 52.73,-18.99 2.14,-0.33 4.54,-0.7 5.83,-2.41 1.01,-1.35 1.04,-3.15 1.02,-4.82 -0.13,-13.46 -0.26,-26.92 -0.41,-40.38 -34.59,1.69 -65.73,2.69 -98.34,-9.3z"/>
   <path class="fil14" d="M3925.9 2340.14c-36.39,1.55 -68.31,-21.52 -98.08,-21.61 -32.2,-0.09 -63.86,41.29 -81.21,34.31 -2.29,5.17 -3.48,10.1 -1.46,12.73 2.98,3.86 14,1.49 18.7,0 4.69,-1.49 9.92,-11.14 14.14,-13.63 30.59,-18.04 44.06,-30.17 68.55,-18.04 1.24,0.62 16.36,9.51 16.44,10.87 0.07,1.2 -15.38,2.03 -19.39,2.78 -16.22,2.99 -26.63,-4.09 -35.48,0.74 -2.37,1.29 -8.68,8.56 4.75,17.29 15.66,10.17 69.81,14.91 87.37,8.41 17.57,-6.5 34.19,-16.14 52.73,-18.99 2.14,-0.33 4.54,-0.7 5.83,-2.42 1.01,-1.34 1.04,-3.14 1.02,-4.81 -0.05,-4.48 -0.09,-8.97 -0.13,-13.45 -11.88,6.94 -24.23,10.51 -33.79,5.81z"/>
   <path class="fil7" d="M4521.35 2323.96c0.05,99.16 -464.9,72.95 -523.38,24.31 -19.24,-16.01 4.8,-63.35 17.58,-60.49 72.93,16.23 322.32,-9.48 320.84,-15.82 -21.48,-92.31 -65.03,-182.23 -92.33,-255.66 -15.76,-42.39 -55.78,-165.15 67.02,-155.56 71.86,5.61 74.45,123.66 97.92,178.93 36.67,86.32 112.29,190.75 112.34,284.29z"/>
   <path class="fil18" d="M4521.35 2323.96c0.05,99.16 -464.9,72.95 -523.38,24.31 -19.24,-16.01 4.8,-63.35 17.58,-60.49 72.93,16.23 322.32,-9.48 320.84,-15.82 -21.48,-92.31 -65.03,-182.23 -92.33,-255.66 -15.76,-42.39 -55.78,-165.15 67.02,-155.56 71.86,5.61 74.45,123.66 97.92,178.93 36.67,86.32 112.29,190.75 112.34,284.29z"/>
   <path class="fil5" d="M4452.39 2254.87c-73.67,-108.56 -102.03,-225.58 -86.93,-353.45 -12.08,-22.51 -28.84,-38.71 -54.36,-40.7 -122.81,-9.59 -82.78,113.18 -67.02,155.56 27.29,73.42 70.85,163.35 92.33,255.67 1.47,6.33 -247.92,32.04 -320.84,15.81 -12.79,-2.85 -36.82,44.48 -17.58,60.49 58.48,48.64 523.42,74.85 523.38,-24.31 0,-9.18 -0.92,-18.49 -2.27,-27.85 -35.95,7.37 -45.63,-10.19 -66.7,-41.23z"/>
   <path class="fil18" d="M4303.83 4133.76l-97.92 -2.05c0,0 -45.1,33.04 -88.92,56.2 -99.55,38.81 -100.37,86.22 -83.54,85.79l244.7 -6.37c26.55,-0.69 46.19,-24.52 41.36,-50.16l-15.68 -83.41z"/>
   <path class="fil18" d="M4022.85 4144.81l-97.92 -2.05c0,0 -45.1,33.04 -88.92,56.2 -99.55,38.81 -100.37,86.22 -83.54,85.79l244.69 -6.36c26.55,-0.69 46.19,-24.52 41.36,-50.17l-15.69 -83.41z"/>
   <path class="fil12" d="M3921.76 2571.1c-34.98,203.7 -67.8,789.63 -64.28,928.03 3.52,138.41 19.02,666.89 19.02,666.89l157.1 0 50.8 -656.92 43.26 -325.91 22.19 982.83 165.55 0c0,0 58.84,-1135.86 58.84,-1324.91 0,-127.43 -50.98,-197.11 -66.73,-258.83l-385.76 -11.18z"/>
   <path class="fil18" d="M3898.02 1869.57c-36.16,26.26 -22.48,207.15 -22.48,251.33 0,22.17 -62.67,173.75 40.77,173.57 0,0 2.33,206.85 -0.02,306.14 179.3,0.88 242.65,-6.26 398.63,11.94 46.12,-281.43 84.44,-508.93 -3.82,-751.82 -40.27,-15.56 -147.84,-15.56 -246.07,-14.76 -60.12,0.49 -148.74,10.31 -167.02,23.59z"/>
   <path class="fil5" d="M4069.13 2260.54c-66.67,-117.88 -22.55,-420.37 -171.12,-366.88 -42.23,15.2 -22.48,183.07 -22.48,227.24 0,22.17 -62.67,173.75 40.77,173.57 0,0 5.53,218.68 -0.02,306.14 194.18,0.53 312.85,0.53 398.63,11.94 17.18,-104.83 33.27,-135.58 42.14,-242.5 -91.48,-4.91 -244.39,-28.74 -287.92,-109.52z"/>
   <path class="fil9" d="M3141.73 2201.22c-22.15,5.55 -78.61,28.54 -84.08,33.59 -5.82,5.39 -27.04,74.89 -28.4,103.1 20.38,15.7 26.82,-12.56 34.19,-26.09 7.38,-13.53 21.38,-28.86 35.62,-22.52 28.9,30.05 36.71,62.82 61.91,72.67 25.2,9.86 28.28,-3.22 55.18,-6.6 18.51,-2.33 57.64,-77.44 35.86,-81.96 -21.38,-4.44 -37.84,-9.99 -37.84,-9.99 -21.58,-11.32 -46.48,-68.69 -72.44,-62.19z"/>
   <path class="fil14" d="M3252.03 2273.39c-21.38,-4.44 -37.84,-9.99 -37.84,-9.99 -1.64,-0.86 -3.31,-2.06 -4.99,-3.41 -18.76,19.33 -20.49,59.42 -39.6,61.78 -19.2,2.37 -55.75,-33.15 -69.39,-69.97 -31.17,12.25 -52.81,38.51 -68.59,68.09 -1.26,6.87 -2.13,13.1 -2.37,18.01 20.37,15.7 26.82,-12.56 34.19,-26.09 7.38,-13.53 21.38,-28.86 35.62,-22.52 28.9,30.05 36.71,62.82 61.91,72.67 25.2,9.84 28.28,-3.22 55.18,-6.6 18.53,-2.33 57.67,-77.44 35.88,-81.97z"/>
   <path class="fil18" d="M3705.77 2130.33c-25.67,31.3 -75.22,114.27 -92.49,115.41 -93.86,6.21 -283.01,37.66 -361.27,27.64 -38.7,-4.95 -64.21,54.72 -37.84,82.99 114.04,0.57 223.79,24.65 337.83,25.23 33.92,0.17 110.45,-3.42 143.17,-12.18 71.65,-19.18 124.68,-118.19 171.63,-174.71 72.99,-87.82 115.5,-159.12 101.31,-271.62 -2.8,-22.2 -31.01,-54.71 -53.77,-55.73 -80.34,-3.63 -170.52,216.59 -208.58,262.99z"/>
   <path class="fil5" d="M3701.41 2323.96c-43.41,23.3 -227.7,13.05 -496.21,-10.97 -3.76,15.36 -1.7,31.94 8.97,43.38 114.04,0.57 223.79,24.66 337.83,25.23 33.92,0.17 110.45,-3.42 143.17,-12.19 71.65,-19.17 124.68,-118.2 171.63,-174.69 57.9,-69.66 96.5,-129 102.95,-206.7 -58.27,95.92 -224.91,312.64 -268.34,335.94z"/>
   <path class="fil19" d="M3892.92 1891.28c-21.89,-1.99 -108.27,120.39 -122.64,165.26 -14.37,44.88 63.76,-88.63 82.89,-106.61 19.12,-17.99 63.02,-56.53 39.75,-58.65z"/>
   <path class="fil19" d="M3617.41 2269.94c-13.13,-17.32 -163.52,1.45 -207.09,20.98 -43.57,19.52 109.72,-12.72 136.12,-10.78 26.39,1.93 84.93,8.22 70.97,-10.2z"/>
   <path class="fil9" d="M4210.12 1465.55c-11.3,-14.13 -25.2,-26.63 -41.85,-34.1 -15.21,-6.83 -32.19,-8.3 -48.61,-11.39 -71.81,-13.55 -192.52,25.07 -192.52,93.44 0,5.98 -1.76,14.64 -1.31,30.93 0.44,16.29 10.88,38.51 10.75,63.25 -7.16,20.05 -22.63,66.98 -18.42,71.44 1.72,1.83 4.33,2.51 6.81,3.07 7.61,1.73 15.29,3.16 23.01,4.29 5.25,26.51 12.33,51.76 21.94,72.37 14.48,31.03 49.4,25 83.08,16.53 71.92,-18.09 135.23,-46.69 170.04,-111.1 34.8,-64.43 32.93,-141.37 -12.91,-198.73z"/>
   <path class="fil14" d="M4210.12 1465.55c-11.3,-14.13 -25.2,-26.63 -41.85,-34.1 -15.21,-6.83 -32.19,-8.3 -48.61,-11.39 -71.81,-13.55 -192.52,25.07 -192.51,93.44 0,5.79 -1.62,14.17 -1.33,29.5 8.57,-7.59 15.98,-17.64 26.58,-29.23 36.06,98.91 136.13,183.13 242.16,189.57 10.82,-11.36 20.43,-24.23 28.47,-39.1 34.8,-64.4 32.93,-141.34 -12.91,-198.7z"/>
   <path class="fil12" d="M3996.86 1599.22c-2.51,-1.21 -4.93,3.65 -10.42,5.63 -2.58,-4.98 -7.28,-8.08 -12.16,-7.44 -6.64,0.86 -11.15,8.3 -10.03,16.58 1.12,8.28 7.43,14.31 14.08,13.45 6.14,-0.8 10.39,-7.23 10.13,-14.73 4.94,-3.44 10.76,-12.38 8.4,-13.5z"/>
   <path class="fil12" d="M3941.85 1581.88c0.18,-1.56 0.95,-2.98 2.21,-3.95 15.72,-12.46 36.01,-14.33 60.3,-5.54 3.11,1.12 4.69,4.51 3.55,7.56 -0.79,2.1 -2.69,3.56 -4.96,3.81 -0.91,0.1 -1.84,-0.01 -2.73,-0.32 -20.33,-7.36 -36.24,-6.16 -48.63,3.64 -1.24,0.99 -2.8,1.45 -4.4,1.28 -1.6,-0.16 -3.03,-0.94 -4.03,-2.16 -1.02,-1.23 -1.48,-2.77 -1.31,-4.33z"/>
   <path class="fil13" d="M3919.97 1648.32c-14.73,22.38 1.68,51.33 15.06,75.44 11.92,21.51 19.38,39.19 32.41,45.01 27.65,12.33 77.4,-12.72 77.4,-12.72 0,0 14.21,-111.13 -5.87,-123.09 -20.08,-11.95 -107.21,-2.54 -119,15.37z"/>
   <path class="fil12" d="M3906.45 1527.92c9.01,17.22 11.53,8.74 52.57,-46.34 0,79.92 67.03,87.98 72.67,155.22 5.9,70.38 -30.22,421.27 21.26,485.05 0,0 98.34,22.92 210.42,0 70.82,-14.48 119.48,-33.57 119.48,-78.29 0,-86.21 -82,-395.63 -88.69,-484.19 -11.55,-152.82 -120.49,-182.88 -163.48,-188.89 -96.29,-13.46 -244.95,31.13 -224.24,157.43z"/>
   <path class="fil20" d="M4004.58 1460.79c-8.99,-13.25 99.58,-58.21 151.43,-30.72 51.85,27.49 -133.32,57.4 -151.43,30.72z"/>
   <path class="fil20" d="M3961.72 1423.87c-10.39,-12.61 101.36,-64.82 157.98,-40.91 31.45,13.29 -15.95,8.23 -66.46,18.13 -40.41,7.92 -82.23,34.07 -91.52,22.78z"/>
   <path class="fil1" d="M7760.01 4451.4c0,-71.57 -323.12,-129.58 -721.7,-129.58 -398.58,0 -721.7,58.02 -721.7,129.58 0,71.57 323.12,129.58 721.7,129.58 398.59,0 721.7,-58.02 721.7,-129.58z"/>
   <path class="fil12" d="M6856.4 1681.65c-30.43,-31.69 -57.14,-109.22 -49.41,-169.14 7.9,-61.25 48.29,-100.66 90.22,-121.89 72.69,-36.82 254.21,-19.49 293.66,-9.75 97.79,24.15 20.67,139.74 -10.21,214.67 -21.98,53.32 -247.97,74.59 -267.08,98.79 -0,0 -26.75,19 -57.18,-12.69z"/>
   <path class="fil9" d="M7199.12 1942.54c-7.45,-47.86 -83.21,-66.17 -83.21,-66.17l-15.75 -66.33c0,0 48.07,5.07 75.6,-59.17 23.27,-54.29 -1.4,-212.29 -9.59,-259.91 -66.38,31.11 -113.15,31.11 -215.14,40.31 6.97,11.5 9.08,69.97 10.73,76.5 6.43,25.36 -28.15,29.95 -28.15,29.95 -1.45,-11.4 -24.76,-22.29 -37.84,-5.5 -0.84,2.3 -1.67,4.54 -2.48,6.9 0.8,-2.36 1.65,-4.6 2.48,-6.9 -5.18,6.65 -8.81,17.51 -8.77,34.6 0.14,63.68 61.61,62.07 61.61,62.07 8.61,69.3 -15.49,167.36 -15.49,167.36 0,0 -77.59,76.27 -46.12,128.29 31.47,52.02 82.32,155.5 211.58,120.22 129.25,-35.25 109.8,-142.67 100.53,-202.22z"/>
   <path class="fil14" d="M6962.03 1662.16c22,-17.15 14.4,-86.8 37.05,-102.45 41.12,-28.4 110.6,-10.81 171.04,-44.65 -1.5,-9.61 -2.87,-17.84 -3.95,-24.11 -66.38,31.12 -113.15,31.12 -215.14,40.31 6.96,11.5 9.08,69.97 10.73,76.5 5.07,19.98 -15.28,27.04 -24.16,29.15 4.79,10.88 10.88,20.81 24.42,25.25z"/>
   <path class="fil14" d="M7112.54 1862.17l-12.38 -52.13c0,0 -57.48,0.6 -92.49,-18.14 -35,-18.75 -59.07,-63 -59.07,-63 4.32,34.76 0.41,76.75 -4.56,109.96 51.56,44.8 115.46,62.66 168.5,23.31z"/>
   <ellipse class="fil12" transform="matrix(0.967197 -0.0906664 0.0922991 0.950089 7146.62 1598.75)" rx="10.71" ry="13.91"/>
   <ellipse class="fil12" transform="matrix(0.967197 -0.0906664 0.0922991 0.950089 7025.37 1614.68)" rx="10.71" ry="13.91"/>
   <path class="fil12" d="M7111.38 1550.19c3.64,-4.63 7.72,-7.56 12.49,-10.23 4.72,-2.57 10.04,-4.21 15.55,-4.93 11,-1.56 22.87,1.55 31.05,8.2 2.6,2.11 2.96,5.89 0.81,8.43 -1.36,1.62 -3.4,2.35 -5.36,2.14l-0.79 -0.09c-4.32,-0.49 -8.14,-1.33 -12,-1.36 -3.81,-0.1 -7.51,-0.02 -11.23,0.6 -3.72,0.51 -7.45,1.39 -11.27,2.43 -3.76,0.99 -7.85,2.63 -11.5,3.71l-1.28 0.38c-3.18,0.94 -6.54,-0.84 -7.49,-3.97 -0.54,-1.9 -0.1,-3.87 1.02,-5.32z"/>
   <path class="fil12" d="M6977.89 1573.76c3.31,-6.26 7.8,-10.89 13.24,-15.02 5.38,-4.12 11.74,-7.26 18.69,-9.44 7.04,-1.94 14.79,-2.76 22.36,-1.59 7.6,1.04 14.68,4.47 19.8,9.23 2.57,2.38 2.53,6.26 -0.06,8.66 -1.23,1.13 -2.81,1.73 -4.41,1.8l-1.27 0.05c-5.95,0.25 -10.63,0.18 -15.29,0.94 -4.61,0.83 -9.08,1.67 -13.7,3.12 -4.66,1.38 -9.41,3.17 -14.48,4.97 -4.96,1.84 -10.4,3.97 -15.98,5.54l-1.06 0.31c-3.53,0.98 -7.23,-0.86 -8.25,-4.12 -0.5,-1.54 -0.3,-3.12 0.4,-4.46z"/>
   <path class="fil13" d="M7096.18 1612.7c-22.17,0.67 -83.57,39.24 -113.79,57.75 0,0 -69.39,-62.9 -73.89,-66.46 -3.43,-2.71 -6.01,1.45 -4.53,6.44 1.21,4.05 65.05,70.02 65.05,70.02 -13.03,38.07 7.54,124.7 116.53,130.04 127.55,6.25 110.67,-161.71 101.96,-170.24 -18.52,-15.83 -69.71,-28.19 -91.34,-27.55z"/>
   <path class="fil20" d="M6882.9 1435.83c-8.87,22.97 117.86,52.64 133.46,23.71 8.08,-14.99 -22.98,-26.7 -43.76,-31.12 -20.76,-4.41 -81.58,-13.63 -89.7,7.41z"/>
   <path class="fil20" d="M6839.54 1490.96c-12.04,14.31 45.88,60.53 64.01,43.67 9.39,-8.74 0.34,-24.37 -12.33,-32.99 -12.66,-8.63 -40.65,-23.78 -51.68,-10.68z"/>
   <path class="fil9" d="M7871.7 2699.3c4.54,-3.29 76.8,36.2 80.1,22.68 -4.32,-31.16 -132.99,-77.44 -131.52,-84.04 1.47,-6.61 61.81,5.44 75.64,1.22 15.8,-4.83 -41.87,-36.27 -72.07,-39.64 -28.33,-3.15 -57.16,21.97 -78.14,27.33 -1.37,0.36 -33.27,-13.26 -77.56,-31.96 -27.07,44.83 -39.14,67.16 -50.08,89.34 41.02,10.34 68.94,16.86 68.94,16.86 0,0 82.32,50.22 139.19,72.8 28.24,11.21 59.69,27.25 66.81,17.27 7.13,-9.99 -62.96,-34.66 -57.73,-41.4 5.23,-6.73 89.44,41.77 98.24,32.22 8.79,-9.55 -78.18,-51.46 -74.8,-56.28 3.37,-4.83 95.06,44.14 103.65,34.3 8.56,-9.86 -95.2,-57.41 -90.67,-60.7z"/>
   <path class="fil14" d="M7835.25 2749.77c1.81,-2.33 13.14,2 27.46,8.2 -26.1,-17.98 -45.44,-45.46 -50.53,-90.44 0,-14.3 -43.67,57.19 -72.76,28.59 -32.4,-31.83 -15.74,-44.17 -1.36,-71.95 -12.08,-4.78 -37.64,-15.64 -69.91,-29.26 -20.06,33.22 -33.17,55.06 -50.08,89.34 41.02,10.34 68.94,16.86 68.94,16.86 0,0 82.32,50.22 139.19,72.8 28.24,11.21 59.69,27.25 66.81,17.27 7.12,-10 -62.97,-34.69 -57.74,-41.41z"/>
   <polygon class="fil9" points="6707.39,4189.65 6686.97,4354.53 6762.9,4375.09 6821.23,4220.68 "/>
   <polygon class="fil9" points="7181.58,4237.41 7198.34,4365.8 7282.13,4365.8 7282.13,4216.02 "/>
   <path class="fil8" d="M6676.33 4260.76l146.75 16.69 203.69 -1115.49c0,0 83.55,514.84 87.04,557.74 3.5,42.9 34.93,557.74 34.93,557.74l167.72 -13.73c0,0 24.45,-559.46 24.45,-624.67 0,-65.21 -17.47,-885.53 -17.47,-885.53l-569.53 0 -77.59 1507.24z"/>
   <path class="fil5" d="M7325.63 2856.32c-1.33,-62.89 -2.17,-102.81 -2.17,-102.81l-569.53 0 -6.8 132.09c196.99,9.76 393.3,27.33 578.5,-29.29z"/>
   <path class="fil5" d="M7289.82 3636.54c-33.07,33.53 -53.97,-19.83 -83.48,-59.52 -29.51,-39.69 -93.31,-410.77 -178.35,-577.05 -81.13,222.72 -153.24,546.78 -173.97,568.2 -20.73,21.42 -124.84,60.71 -140.63,-27.81l-37.09 720.4 146.75 16.68 203.69 -1115.49c0,0 83.55,514.84 87.04,557.74 3.5,42.9 34.93,557.74 34.93,557.74l167.72 -13.73c0,0 24.45,-559.46 24.45,-624.67 0,-41.92 -9.15,-488.01 -14.3,-735.51 -29.53,189.83 -3.72,699.49 -36.78,733.02z"/>
   <path class="fil12" d="M6556.9 4480.76c-2.36,33.99 59.38,49.48 128.12,11.64 68.74,-37.84 81.25,-50.94 90.62,-62.58 9.37,-11.64 13.24,-78.04 5.83,-93.6 -7.4,-15.56 -73.36,-31.64 -95.07,-15.6 -21.7,16.04 -35.77,49.51 -56.08,72.8 -20.31,23.29 -70.29,42.21 -73.42,87.33z"/>
   <path class="fil21" d="M6681.5 4442.97c16.22,-8.16 66.34,-57.64 86.15,-105.64 -20.36,-9.68 -58.74,-15.55 -73.78,-4.44 -19.72,14.57 -32.48,44.97 -50.93,66.13 -9.28,10.65 -25.42,20.31 -39.51,32.5 17.52,27.04 61.83,19.62 78.07,11.45z"/>
   <path class="fil12" d="M7177.69 4334.79c14.07,-17.06 106.64,-19.25 130.02,-9.21 23.38,10.04 54.75,41.96 86.13,51.99 31.37,10.04 148.49,42.69 126.67,81.74 -21.83,39.05 -337.3,3.52 -349.93,-5.69 -12.65,-9.19 -14.98,-92.05 7.11,-118.83z"/>
   <path class="fil21" d="M7301.1 4405.82c46.66,22.92 118.28,33.48 169.71,12.08 -28.26,-16.48 -71.78,-28.89 -88.31,-34.18 -27.68,-8.85 -55.34,-37 -75.97,-45.85 -9.52,-4.1 -32.05,-5.85 -54.77,-5.1 -16.14,45.29 30.4,63.76 49.33,73.06z"/>
   <path class="fil10" d="M7483.24 2466.63c-13.66,-14.16 -78.19,-477.66 -129.24,-519.8 -54.93,-45.34 -240.96,-86.5 -240.96,-86.5 0,0 8.61,48.98 -52.75,55.77 -61.35,6.79 -123.61,-57.96 -123.61,-57.96 0,0 -59.08,21.24 -109.97,44.34 -18.46,-7.77 -37.12,-16.19 -50.16,-22.75 -8.18,12.19 -18.73,28.1 -30.7,46.64 -24.09,14.06 -47.3,18.22 -61.12,41.01 -13.82,22.78 -19.45,64.26 -19.93,93.58 -34.12,61.76 -65.02,126.71 -77.82,178.48 -15.28,61.74 11.1,167.07 23.63,171.94 23.33,9.06 114.1,-20.27 142.74,-74.68 0,0 2.67,302.48 -32.13,441.89 0,0 259.73,123.62 650.67,0 0,0 -28.79,-211.4 -34.31,-344.24 19.32,91.32 39.9,136.55 50.93,151.44 20.81,28.11 233.98,110.29 294.86,125.04 9.55,-25.5 15.24,-80.65 33.2,-101.04 -54.04,-22.68 -219.67,-128.98 -233.34,-143.15z"/>
   <path class="fil22" d="M7324.29 2127.83c-3.92,-23.97 -29.98,-79.09 -44.69,-62.63 -14.7,16.45 22.8,296.53 -21.93,333.92 -44.73,37.39 -356.49,2.78 -396.08,-62.55 -39.58,-65.33 -4.46,-165.98 -1.21,-273.84 0.21,-6.88 -39.14,56.07 -53.41,54.54 -3.01,-0.32 53.4,-185.53 50.4,-186.09 -10.86,-2.03 -28.94,32.43 -36.49,32.43 -45.55,109.19 -88.47,336.67 -138.84,348.49 -50.38,11.82 -95.04,-72.67 -77.92,-125.17 -7.18,18.46 -13.07,36.14 -17.12,52.49 -15.28,61.74 11.1,167.07 23.63,171.94 23.34,9.06 114.1,-20.27 142.74,-74.68 0,0 2.67,302.48 -32.13,441.89 0,0 259.73,123.62 650.67,0 0,0 -28.79,-211.4 -34.31,-344.24 19.32,91.32 39.9,136.55 50.93,151.44 20.81,28.11 233.98,110.29 294.86,125.04 4.86,-12.98 8.73,-33.64 13.71,-53.49 -101.4,-22.49 -260.33,-104.18 -272.59,-124.79 -12.28,-20.63 -97.3,-386.87 -100.22,-404.7z"/>
   <path class="fil19" d="M7332.4 1961.26c13.39,12.77 -139.97,-12.46 -158.45,-18.3 -14.05,-4.44 -52.23,-25.3 -39.43,-43.6 12.81,-18.3 183.8,48.49 197.89,61.9z"/>
   <path class="fil19" d="M7475.07 2482.43c9,3.49 162.15,92.72 164.57,105.4 2.42,12.68 -184.74,-62.61 -188.77,-75.28 -4.03,-12.68 16.79,-32.99 24.2,-30.12z"/>
   <path class="fil19" d="M6777.03 1904.98c9.35,-5.04 18.61,4.07 19.85,12.3 1.24,8.24 -109.14,182.46 -119.06,178.81 -9.93,-3.65 83.09,-182.42 99.22,-191.11z"/>
   <path class="fil12" d="M6955.28 1590.54l85.73 213.96c3.71,9.26 -0.92,19.73 -10.35,23.38l-114.55 44.28c-9.43,3.64 -20.08,-0.91 -23.79,-10.17l-85.73 -213.95c-3.71,-9.26 0.92,-19.73 10.35,-23.38l114.55 -44.28c9.44,-3.64 20.09,0.91 23.79,10.17z"/>
   <path class="fil23" d="M6971.43 1673.67c-1.63,0 -3.2,-0.97 -3.83,-2.55l-24.36 -60.78c-2.53,-6.34 -9.9,-9.44 -16.31,-6.97l-38.86 15.03c-2.12,0.81 -4.51,-0.2 -5.33,-2.27 -0.83,-2.08 0.21,-4.43 2.31,-5.24l38.86 -15.02c10.68,-4.13 22.79,1.04 26.98,11.51l24.36 60.78c0.84,2.08 -0.21,4.43 -2.31,5.24 -0.51,0.18 -1.01,0.27 -1.51,0.27z"/>
   <ellipse class="fil13" cx="6847.56" cy="1651.22" rx="12.82" ry="12.59"/>
   <path class="fil9" d="M6888.77 1786.95c-18.45,-0.43 -37.19,-2.13 -37.8,-4.4 -0.62,-2.27 75.17,5.38 72.17,-7.77 -1.29,-5.64 -21.84,-10.94 -44.45,-11.97 -17.26,-0.79 -37.13,1.98 -37.15,0 -0.04,-1.98 77.66,-0.6 69.74,-16.75 -2.95,-6.03 -44.19,-5.65 -55.42,-4.78 -10.55,0.81 -23.79,2.66 -24.36,0.97 0,0 6.67,-10.92 12.72,-11.9 7.28,-1.17 54.59,12.42 58.96,-0.01 3.34,-9.49 -69.95,-21.25 -73.79,-20.2 -13.95,3.81 -36.54,27.98 -39.73,39 -6.08,21 16.91,100.7 12.85,109.18 -0.53,1.1 -6.91,10.41 -17.16,25.69 21.88,10.47 52.93,23.73 75.61,32.09 5.93,-16.88 9.7,-27.67 10.21,-29.55 11.55,-42.19 -3.12,-82.76 -3.12,-82.76 0,0 53.06,6.15 57.9,-7.99 2.51,-7.34 -17.28,-8.37 -37.16,-8.85z"/>
   <path class="fil14" d="M6789.46 1750.15c-5.23,22.27 17.03,99.8 13.04,108.18 -0.53,1.1 -6.91,10.41 -17.16,25.69 21.88,10.47 52.93,23.73 75.61,32.09 5.93,-16.88 9.7,-27.67 10.21,-29.55 11.55,-42.19 -3.12,-82.75 -3.12,-82.75 0,0 49.8,5.73 57.21,-6.83 -18.99,3.83 -66.77,1.22 -73.93,0.4 -7.16,-0.82 -37.39,-16.84 -61.85,-47.24z"/>
   <path class="fil19" d="M6819.78 1859.58c-8.47,2.03 -37.29,34.58 -35.89,56.93 1.4,22.34 54.7,-61.45 35.89,-56.93z"/>
   <path class="fil24" d="M1084.33 4298.77c0,-41.14 -170.41,-74.49 -380.64,-74.49 -210.22,0 -380.64,33.35 -380.64,74.49 0,41.14 170.41,74.49 380.64,74.49 210.22,0 380.64,-33.35 380.64,-74.49z"/>
   <path class="fil25" d="M640.59 3821.74c0,0 -181.75,-1.64 -256.84,-80.96 -75.09,-79.32 -0.9,-132.67 -0.9,-132.67 0,0 -140.24,-44.83 -161.31,-116.14 -21.07,-71.31 42.88,-113.38 42.88,-113.38 0,0 -211.16,-63.92 -113.42,-256.19 0,0 166.54,-77.71 226.79,75.13 0,0 61.92,-67.68 142.21,-18.29 80.29,49.39 60.49,245.88 60.49,245.88 0,0 39.29,-66.45 107.31,-38.08 84.89,35.39 93.48,280.59 -47.21,434.69z"/>
   <path class="fil6 str3" d="M160.55 3130.05c0,0 402.74,311.87 480.04,691.69 26.8,131.7 36.25,242.25 37.16,330.49"/>
   <polyline class="fil6 str3" points="184.51,3282.67 319.13,3276.39 307.89,3134.65 "/>
   <polyline class="fil6 str3" points="216.8,3326.06 362.57,3323.28 348.69,3180.21 "/>
   <polyline class="fil6 str3" points="296.82,3531.24 521.54,3531.04 548.15,3267.28 "/>
   <polyline class="fil6 str3" points="371.31,3699.61 618.55,3739.15 691.98,3423.16 "/>
   <polyline class="fil6 str3" points="370.1,3656.95 599.62,3687.54 655.07,3405.37 "/>
   <path class="fil10" d="M757.4 3662.41c0,0 180.09,-24.12 244.41,-112.11 64.32,-87.99 -16.13,-131.72 -16.13,-131.72 0,0 133.36,-61.84 145.13,-135.18 11.77,-73.35 -57.07,-107.17 -57.07,-107.17 0,0 201.28,-89.55 79.64,-268.19 0,0 -175.19,-56.46 -215.34,102.6 0,0 -70.11,-59.47 -143.43,-0.54 -73.32,58.93 -28.46,251.42 -28.46,251.42 0,0 -47.5,-61.07 -111.34,-24.49 -79.69,45.63 -56.75,289.93 102.59,425.38z"/>
   <path class="fil6 str4" d="M1144.86 2916.81c0,0 -359.52,359.25 -387.46,745.6 -27.95,386.36 64.68,580.39 64.68,580.39"/>
   <polyline class="fil6 str4" points="1140.68,3071.18 1006.32,3081.63 999.29,2939.63 "/>
   <polyline class="fil6 str4" points="1114.23,3118.23 969.26,3133.51 964.67,2989.87 "/>
   <polyline class="fil6 str4" points="1061.16,3331.67 838.2,3359.3 777.98,3100.93 "/>
   <polyline class="fil6 str4" points="1008.86,3507.93 768.68,3577.76 655.28,3273.37 "/>
   <polyline class="fil6 str4" points="1004.59,3465.47 780.83,3524.22 689.61,3251.16 "/>
   <path class="fil18" d="M813.59 4323.92l-231.79 0c-77.82,0 -140.92,-61.98 -140.92,-138.43l0 -361.37 513.63 0 0 361.37c0,76.45 -63.1,138.43 -140.92,138.43z"/>
   <path class="fil17" d="M440.88 4156.33l0 29.17c0,76.45 63.1,138.43 140.92,138.43l231.8 0c77.82,0 140.92,-61.98 140.92,-138.43l0 -27.83c-43.7,104 -467.68,101.98 -513.64,-1.34z"/>
   <path class="fil13" d="M954.51 3890.33l-513.63 0c-1.36,0 -2.47,-3.06 -2.47,-6.83 0,-3.77 1.11,-6.83 2.47,-6.83l513.64 0c1.36,0 2.47,3.06 2.47,6.83 0,3.77 -1.12,6.83 -2.48,6.83z"/>
   <path class="fil12" d="M5377.48 2471.31c141.56,-31.7 44.59,-307.48 79.58,-347.56 68.24,-78.12 218.3,-88.37 285.21,-6.29 82.23,100.89 20.34,323.31 148.53,332.6 -113.74,143.95 -317,162.9 -513.31,21.24z"/>
   <path class="fil9" d="M5488.1 2188.2c-8.75,32.18 9.53,162.66 33.12,200.25 19.74,31.44 52.55,16.82 52.55,16.82l9.3 94.72 135.88 -36.83c0,0 -36.02,-77.45 -42.71,-121.02 -2.23,-14.52 3.7,-25.08 6.08,-27.1 20.8,-0.16 25.64,-26.69 25.33,-43.81 -0.66,-37.8 -34.6,-36.97 -43.12,-3.92 -13.06,4.67 4.1,-25.92 -27.54,-48.26 -26.88,-18.99 -71.45,-18.31 -77.83,-46.43 -0.02,-0.01 -44.52,36.88 -71.06,15.57z"/>
   <path class="fil14" d="M5663.75 2288.67c3.05,-11.53 4.81,-22.62 5.84,-33.47 -2.08,3.39 -3.86,7.38 -5.09,12.11 -13.06,4.67 4.1,-25.92 -27.54,-48.26 -26.88,-18.99 -71.45,-18.31 -77.83,-46.43 0,0 -44.51,36.89 -71.04,15.58 -1.34,4.94 -2.04,12.21 -2.2,21.09 17.76,7.8 42.14,-0.51 67.34,-12.95 9.18,22.27 81.36,19.66 110.52,92.31z"/>
   <path class="fil14" d="M5688.66 2388.52c-5.32,-18.95 -14.72,-44.19 -12.39,-59.31 -5.46,23.55 -60.01,61.72 -102.5,76.05l3.45 35.21c51.84,6.29 83.08,-21.66 111.44,-51.96z"/>
   <ellipse class="fil26" transform="matrix(0.970112 -0.0521093 0.0530477 0.952952 5595.63 2261.73)" rx="10.27" ry="13.02"/>
   <ellipse class="fil26" transform="matrix(0.970112 -0.0521093 0.0530477 0.952952 5510.14 2266.32)" rx="10.27" ry="13.02"/>
   <path class="fil26" d="M5603.29 2256.39c5.46,-0.86 7.94,-5.5 10.09,-4.27 2.15,1.24 -5.38,10.44 -9.7,11.35 -4.31,0.91 -0.39,-7.09 -0.39,-7.09z"/>
   <path class="fil26" d="M5502.61 2261.8c-5.53,-0.27 -8.5,-4.62 -10.49,-3.16 -2,1.46 6.5,9.8 10.89,10.24 4.39,0.45 -0.4,-7.08 -0.4,-7.08z"/>
   <path class="fil26" d="M5570.82 2229.74c0.21,-1.09 0.84,-2.03 1.76,-2.67 11.77,-7.94 26.16,-8.17 42.78,-0.69 2.12,0.96 3.06,3.42 2.08,5.52 -0.67,1.44 -2.09,2.37 -3.71,2.42 -0.65,0.02 -1.29,-0.11 -1.91,-0.38 -13.91,-6.26 -25.19,-6.27 -34.46,-0.04 -0.93,0.64 -2.05,0.87 -3.17,0.67 -1.12,-0.2 -2.09,-0.82 -2.72,-1.73 -0.63,-0.91 -0.87,-2.01 -0.67,-3.1z"/>
   <path class="fil26" d="M5523.52 2232.89c-0.3,-1.07 -1.01,-1.97 -1.98,-2.52 -12.39,-6.96 -26.76,-6.02 -42.69,2.78 -2.03,1.12 -2.76,3.66 -1.61,5.67 0.79,1.38 2.28,2.18 3.89,2.11 0.65,-0.04 1.28,-0.21 1.87,-0.53 13.34,-7.37 24.57,-8.3 34.33,-2.82 0.98,0.56 2.12,0.7 3.21,0.41 1.1,-0.29 2.01,-0.98 2.57,-1.95 0.56,-0.94 0.71,-2.06 0.41,-3.14z"/>
   <path class="fil14" d="M5685.96 2263.35c-4.69,-0.28 -8.93,6.49 -9.47,15.14 -0.54,8.65 2.82,15.88 7.52,16.17 4.69,0.28 8.93,-6.49 9.47,-15.14 0.54,-8.65 -2.82,-15.88 -7.52,-16.16z"/>
   <path class="fil13" d="M5681.71 2315.63c-6.51,0.88 -26.7,6.82 -35.69,7.65 1.81,-10.47 -0.54,-20.37 -2.17,-25.11 9.48,-16.22 19.48,-31.72 20.98,-33.8 2.11,-2.94 1.37,-6.23 -1.49,-5.21 -3.37,1.2 -16.79,11.81 -29.06,22.46 -31.88,1.37 -72.24,-13.15 -87.2,-12.7 -15.33,0.46 -34.37,15.19 -55.26,27.98 8.41,43.55 13.84,109.67 55.29,114.92 60.52,7.68 88.01,-36.62 96.17,-73.65 10.8,-3.59 29.88,-10.61 35.47,-12.03 8.38,-2.16 11.01,-11.61 2.97,-10.52z"/>
   <path class="fil27" d="M5608.64 2134.44c-7.6,19.42 71.36,15.25 89.23,-7.39 17.85,-22.64 -4.36,-28.68 -24.86,-28.79 -20.51,-0.11 -57.4,18.4 -64.37,36.18z"/>
   <path class="fil27" d="M5478.36 2125.14c-1.1,20.78 118.8,-14.69 124.09,-42.86 2.74,-14.59 -27.95,-9.15 -47.48,-3 -19.53,6.15 -75.6,26.82 -76.61,45.85z"/>
   <path class="fil9" d="M6033.96 3260.84c8.63,2.66 21.25,-9.77 2.22,-21.65 -2.21,-1.27 -13.11,-7.11 -10.78,-6.03 5,1.81 11.94,-10.86 -3.57,-19.83l-90.26 -43.5 5.15 -160.28 -79.12 1.09c0,0 11.67,169.62 8.76,183.04 -0.29,1.35 -0.14,14.33 0.21,16.39 -3.23,16.7 6.03,32.93 14.86,43.93 6.87,8.54 24.26,23.5 68.6,47.47 1.47,0.59 3.36,0.43 4.31,-1.34 4.74,-18.28 -26.27,-30.71 -23.51,-37.82 0,0 60.52,26.71 70.63,29.18 17.73,5.93 26.68,-10.52 15.62,-16.56 29.04,14.52 35.86,-6.41 16.89,-14.08z"/>
   <path class="fil14" d="M6017.08 3274.9c9.06,4.54 15.95,5.61 20.58,4.72 -27.42,-9.54 -51.08,-29.23 -71.73,-30.87 0,0.01 39.64,21.33 51.14,26.15z"/>
   <path class="fil14" d="M6025.4 3233.16c2.56,0.93 5.58,-1.96 5.89,-6.18 -7.03,3.5 -25.92,-12.39 -46.96,-14.39 -0.02,-0 40.24,20.18 41.07,20.57z"/>
   <path class="fil14" d="M6045.19 3255.91c-8.76,3.2 -55.5,-22.32 -65.96,-21.8 0,0 40.96,21.17 54.73,26.71 4.15,1.29 9.21,-0.94 11.23,-4.91z"/>
   <path class="fil14" d="M5885.72 3010.51l-28.13 0.12c0,0 11.67,169.62 8.76,183.04 -0.29,1.35 -0.14,14.33 0.21,16.39 -3.23,16.7 6.03,32.93 14.86,43.93 6.87,8.54 24.26,23.5 68.6,47.47 1.47,0.59 3.36,0.43 4.31,-1.34 4.74,-18.28 -26.27,-30.71 -23.51,-37.82 0,0 60.52,26.71 70.63,29.18 7.32,2.45 13.02,1 16.56,-1.87 -60.78,-25.9 -112.63,-50.67 -121.78,-71.35 -9.14,-20.7 -8.93,-126.07 -10.51,-207.74z"/>
   <polygon class="fil9" points="5536.21,3791.05 5468.03,3820.71 5450.96,3699.9 5531.23,3699.9 "/>
   <polygon class="fil9" points="5148.19,3634.02 5078.09,3593.51 5136.9,3486.09 5210.85,3539.6 "/>
   <path class="fil12" d="M5554.22 3784.24c-20.04,-15.22 -95.92,-0.65 -108.49,20.5 -12.58,21.14 -34.79,47 -54.18,58.81 -17.44,10.63 -82.44,26.66 -94.63,46.54 -12.19,19.9 -2.46,46.14 6.54,49.99 4.96,2.12 87.17,19.86 163.92,-18.23 55.17,-27.37 120.48,-33.55 126.46,-49.95 8.36,-22.84 -10.61,-85.66 -39.61,-107.68z"/>
   <path class="fil21" d="M5504.5 3805.52c-26.84,1.54 -51.99,1.67 -59.6,14.46 -11.6,19.51 -32.11,43.37 -49.99,54.28 -11.52,7.03 -45.43,16.6 -67.95,28.2 132.52,35.17 200.86,-65.81 177.55,-96.94z"/>
   <path class="fil9" d="M5157.55 2684.32c0,0 -52,-77.81 -63.82,-92.6 -11.82,-14.79 -0.27,-100.17 10.75,-100.81 11.03,-0.65 40.27,-12.01 44.21,-7.58 3.93,4.41 48.94,48.63 47.25,61.89 -1.69,13.26 2.09,58.58 -2.25,74.61l19.41 30.45c0,0 -46.69,26.14 -55.55,34.04z"/>
   <path class="fil28" d="M5241.81 2644.61l97.74 154.83c0,0 52.83,-301.37 97.96,-315.64 54.29,-17.18 131.71,-39.26 136.25,-32.46 32.5,48.66 85.88,36.3 139.74,3.4 52.63,8.5 143.04,10.02 170.43,45.25 22.32,28.7 64.42,277.76 69.64,340.33 5.22,62.57 -0.1,273.12 -1.09,277.03 -2.03,8.06 -94.8,24.86 -99.17,7.63 -2.61,-10.24 -2.54,-223.48 -3.03,-259.38 -0.47,-35.91 -26.65,-133.94 -31.04,-128.01 -7.81,10.55 -14.43,143.82 -10.21,259.96 1.63,45.05 64.12,145.82 40.78,227.25 -8.87,30.95 -92.22,-78.81 -229.78,-80.91 -137.56,-2.09 -185.3,-16.5 -211.07,-63.37 -6.24,-11.35 65.88,-54.25 65.64,-97.16 -0.74,-134.21 -8.18,-127.88 -9.56,-181.86 -5.25,-12.55 -34.83,115.58 -95.03,138.52 -60.2,22.95 -223.91,-226.15 -226.92,-238.5 -3.02,-12.35 88.55,-69.02 98.73,-56.91z"/>
   <path class="fil5" d="M5898.86 2870.78c-45.33,-66.79 -22.67,-200.38 -101.99,-267.17 -33.99,133.59 -54.96,236.57 -273.2,179.96 -73.5,-19.07 -63.92,-101.62 -56.53,-179.96 -30.8,89.37 -71.87,268.34 -110.5,273.12 -33.2,4.11 -156.04,-151.85 -107.93,-222.85l-6.9 -9.26c-10.17,-12.12 -101.73,44.54 -98.72,56.89 3.02,12.35 166.72,261.45 226.92,238.51 60.2,-22.95 89.78,-151.07 95.03,-138.53 1.39,53.98 8.81,47.64 9.57,181.86 0.24,42.92 -71.89,85.8 -65.64,97.16 25.77,46.86 73.49,61.28 211.07,63.37 137.56,2.09 220.91,111.87 229.78,80.91 23.32,-81.42 -39.15,-182.2 -40.78,-227.25 -4.22,-116.13 2.39,-249.41 10.21,-259.96 4.4,-5.93 30.57,92.12 31.04,128.01 0.47,35.9 0.42,249.14 3.03,259.38 4.38,17.22 97.14,0.43 99.17,-7.63 0.94,-3.76 6.77,-198.28 1.7,-268.99 -18.92,31.13 -39.81,52.99 -55.36,22.44z"/>
   <path class="fil12" d="M5237.95 2351.86l46.95 207.41c2.03,8.98 -3.73,17.88 -12.88,19.87l-111.04 24.26c-9.15,2 -18.2,-3.66 -20.23,-12.65l-46.95 -207.41c-2.03,-8.99 3.73,-17.88 12.88,-19.87l111.04 -24.26c9.13,-1.99 18.19,3.67 20.23,12.64z"/>
   <path class="fil20" d="M5240.51 2430.02c-1.49,-0.23 -2.77,-1.34 -3.11,-2.88l-13.33 -58.92c-1.39,-6.15 -7.67,-10.01 -13.87,-8.67l-37.67 8.23c-2.05,0.44 -4.09,-0.81 -4.54,-2.82 -0.46,-2.02 0.84,-4.02 2.87,-4.46l37.67 -8.23c10.35,-2.26 20.65,4.17 22.94,14.32l13.33 58.92c0.46,2.01 -0.83,4.02 -2.87,4.46 -0.48,0.11 -0.95,0.12 -1.41,0.05z"/>
   <ellipse class="fil13" cx="5130.74" cy="2392.05" rx="11.84" ry="11.63"/>
   <path class="fil9" d="M5130.74 2466.66c7.31,-1.36 33.12,5.44 44.75,16.79 6.99,6.81 6.16,16.4 1.02,20.62 14.4,2.27 13.98,22.18 1.61,23.23 13.63,4.08 13.06,26.94 -14.12,21.71 13.53,3.18 5.61,19.75 -5.89,18.17 -11.5,-1.58 -45.46,-5.54 -57.4,-7.14 -8.83,-1.19 -9,-42.64 3.76,-69.12 4.5,-9.33 23.23,-23.69 26.28,-24.26z"/>
   <path class="fil29" d="M5480.19 3103.58c17.99,3.56 75.78,30.79 85.4,68.02 41.66,161.38 -25.71,549.04 -25.71,549.04l-93.15 -0c0.01,-0.01 -146.2,-652.51 33.47,-617.06z"/>
   <path class="fil5" d="M5565.6 3171.6c-9.62,-37.24 -67.41,-64.48 -85.4,-68.02 -91.43,-18.03 -98.47,142.06 -83.33,303.66 21.05,-48.46 24.96,-167.11 82.67,-135.7 57.71,31.41 69.06,329.64 19.49,336.35 -49.59,6.71 -72.67,-70.84 -90.83,-104.26 16.46,118.43 38.54,217 38.54,217l93.16 0c-0.01,0 67.36,-387.66 25.7,-549.03z"/>
   <path class="fil29" d="M5809.78 3286.79c102.25,-77.62 -4.78,-200.24 -169.59,-263.13 -149.84,-57.18 -252.57,-56.4 -297.94,-22.27 -45.39,34.13 -231.68,511.57 -231.68,511.57l94.93 52.81c0,0 219.13,-218.8 216.75,-427.61 34.76,19.89 239.45,261.05 387.53,148.62z"/>
   <path class="fil5" d="M5795.25 3116.04c-10.9,43.89 -28.49,81.27 -66.38,88.71 -124.66,44.53 -307.74,-134.98 -328.66,-122.45 -20.91,12.53 -119.23,326.78 -231.91,286.63 -33.3,81.45 -57.72,144.04 -57.72,144.04l94.93 52.81c0,0 219.13,-218.8 216.75,-427.61 34.76,19.88 239.45,261.03 387.55,148.62 63.18,-47.98 46.37,-113.12 -14.55,-170.75z"/>
   <path class="fil20" d="M5376.01 3012.45c-8.35,12.93 193.94,46.39 211.03,37.44 50.83,-26.56 -190.03,-69.96 -211.03,-37.44z"/>
   <path class="fil12" d="M4870.46 3654.41c3.2,-33 76.72,-15.52 109.75,-27.08 33.03,-11.57 69.29,-39.13 90.99,-50.59 21.7,-11.47 91.22,36.65 93.98,50.59 2.75,13.93 -25.9,100.72 -47.73,114.27 -21.83,13.54 -98.92,-3.52 -117.45,-1.91 -59.73,5.2 -133.47,-44.75 -129.53,-85.28z"/>
   <path class="fil21" d="M5121.41 3617.18c-19.46,-14.72 -49.23,-30.37 -61.37,-23.96 -18.34,9.68 -48.97,32.96 -76.87,42.73 -17.27,6.06 -47.63,2.71 -68.91,5.89 65.16,49.71 155.43,49.07 207.16,-24.66z"/>
  </g>
 </g>
</svg>
